<svg id="Layer_1" data-name="Layer 1" xmlns="http://www.w3.org/2000/svg" viewBox="0 0 50 50"><defs><style>.cls-1{fill:#fff;}</style></defs><path class="cls-1" d="M37.67,9.62h0a2.81,2.81,0,0,1,2.8,2.84,2.87,2.87,0,0,1-2.87,2.82,2.83,2.83,0,0,1,0-5.66Z"/><path class="cls-1" d="M48.31,13.26c.35,3.71.57,21.25-.52,25.36-1.46,5.38-5,8.57-10.42,9.44a116.11,116.11,0,0,1-13,.52c-5.62,0-11.23-.2-13.11-.69C5.9,46.51,2.71,43,1.86,37.6c-.64-4-.7-22.47.44-26.48A12,12,0,0,1,12.59,2a90.51,90.51,0,0,1,11.82-.53c4.4,0,8.84.12,11.52.26a13,13,0,0,1,8.61,3.53A12.38,12.38,0,0,1,48.31,13.26ZM43.77,36.82c.67-4.14.68-19.28.29-23.17A7.94,7.94,0,0,0,37,6.13,108.1,108.1,0,0,0,25.2,5.69c-4.7,0-9.38.13-11.43.35a8.08,8.08,0,0,0-7.54,7.1C5.55,17.48,5.56,33.7,6.07,37a7.65,7.65,0,0,0,5.82,6.67c1.83.51,7.31.69,12.69.69,5,0,9.81-.15,11.63-.35a8.08,8.08,0,0,0,7.56-7.15"/><path class="cls-1" d="M25.1,12.92A12,12,0,0,1,37.1,25,12.22,12.22,0,0,1,24.9,37.11,12,12,0,0,1,12.9,25,12.18,12.18,0,0,1,25.1,12.92Zm-.18,19.91a7.9,7.9,0,0,0,7.89-7.75,7.74,7.74,0,0,0-7.68-7.9h-.07a7.9,7.9,0,0,0-7.89,7.75,7.76,7.76,0,0,0,7.68,7.9h.07"/></svg>