<svg id="Layer_1" data-name="Layer 1" xmlns="http://www.w3.org/2000/svg" viewBox="0 0 50 50"><defs><style>.cls-1{fill:#fff;}</style></defs><path class="cls-1" d="M6.29.9a5.74,5.74,0,0,1,5.76,5.8,5.85,5.85,0,0,1-5.84,5.81A5.76,5.76,0,0,1,.45,6.7,5.86,5.86,0,0,1,6.29.9Z"/><polygon class="cls-1" points="11.19 16.89 10.95 49.1 0.93 49.1 1.18 16.89 11.19 16.89"/><path class="cls-1" d="M36.67,16.11c10.15,0,12,6.65,11.89,15.33L48.43,49.1h-10l.12-15.65c0-3.75,0-8.56-5.14-8.56s-6,4.07-6.06,8.28L27.23,49.1h-10l.25-32.21h9.59l0,4.4h.15A10.6,10.6,0,0,1,36.67,16.11Z"/></svg>