<?xml version="1.0" encoding="utf-8"?>
<!-- Generator: Adobe Illustrator 24.1.0, SVG Export Plug-In . SVG Version: 6.00 Build 0)  -->
<svg version="1.1" id="Layer_1" xmlns="http://www.w3.org/2000/svg" xmlns:xlink="http://www.w3.org/1999/xlink" x="0px" y="0px"
	 viewBox="0 0 50 25" style="enable-background:new 0 0 50 25;" xml:space="preserve">
<style type="text/css">
	.st0{fill:#E1B2A2;}
	.st1{fill:#F26F84;}
	.st2{fill:#93C5EA;}
	.st3{fill:#3A6289;}
	.st4{fill:#F9EAA5;}
</style>
<path class="st0" d="M-183.4,67.6c0.1-0.3,0.1-0.7,0.1-1c0-0.3,0-0.7-0.1-1c-0.1-0.3-0.3-0.6-0.4-0.8l-0.2-0.2h-0.1
	c-0.2,0-0.2,0.1-0.3,0.3c0,0.1,0,0.3,0,0.4c0,0.1,0,0.3,0,0.5s0,0.5,0,0.8c0,0.3,0,0.5,0,0.8c0,0.2,0,0.4,0,0.5c0,0.2,0,0.3-0.1,0.5
	c0,0.2-0.1,0.3-0.1,0.4c-0.1,0.3-0.3,0.7-0.6,0.9c-0.3,0.3-0.6,0.4-1,0.4c-0.1,0-0.2,0-0.4-0.1c-0.1-0.1-0.2-0.1-0.3-0.2
	c0,0,0,0-0.1,0l-0.2-0.1c-0.2-0.1-0.3-0.3-0.4-0.5c-0.1-0.2-0.2-0.4-0.3-0.6c0,0,0-0.1,0-0.3c0-0.1,0-0.2-0.1-0.3
	c0-0.1-0.1-0.1-0.1-0.2c0-0.1,0-0.1-0.1-0.2c0-0.1,0-0.2-0.1-0.5c0-0.1,0-0.3,0-0.4v-2.5c0-0.1,0-0.1,0-0.2c0-0.1,0-0.2,0-0.2v-0.4
	c0-0.2,0.1-0.5,0.2-0.7c0.1-0.2,0.1-0.5,0.2-0.7v-0.2c0.1-0.4,0.4-0.8,0.8-1c0.4-0.3,0.8-0.4,1.2-0.4c0.1,0,0.2,0,0.4,0.1
	c0.1,0.1,0.2,0.1,0.3,0.2c0.1,0,0.1,0.1,0.1,0.2c0,0.1,0,0.2,0.1,0.2h0.1c0.1,0,0.2,0,0.2-0.1c0.1-0.1,0.1-0.1,0.2-0.1h0.2h0.1h0.1
	c0.1,0,0.1,0,0.2,0h0.2c0.3,0,0.7,0,1,0.1c0.3,0.1,0.6,0.3,0.8,0.6c0,0.1,0.1,0.2,0.1,0.2c0,0.1,0.1,0.2,0.1,0.2
	c0.1,0,0.2-0.1,0.3-0.2l0.3-0.3c0.1-0.1,0.2-0.2,0.3-0.2l0.4-0.2c0.2-0.2,0.5-0.3,0.8-0.3c0.3-0.1,0.6-0.1,0.9-0.1
	c0.1,0,0.2,0,0.4,0l0.4,0.1c0.1,0,0.3,0.1,0.4,0.1c0.1,0,0.2,0.1,0.3,0.1c0.1,0.1,0.2,0.1,0.3,0.2l0.4,0.3c0,0,0,0,0.1,0.1l0.1,0.1
	c0.2,0.2,0.4,0.4,0.5,0.6c0.1,0.2,0.2,0.5,0.3,0.7c0.1,0.3,0.1,0.5,0.1,0.8c0,0.3,0,0.5,0,0.8v0.2c0,0.1,0,0.2,0,0.4
	c0,0.1,0,0.2,0,0.3c0,0.3-0.1,0.6-0.1,1c0,0.4-0.1,0.7-0.2,1.1c-0.1,0.4-0.2,0.8-0.3,1.1c-0.1,0.3-0.3,0.6-0.6,0.9
	c-0.1,0.1-0.3,0.2-0.4,0.2c-0.1,0-0.3,0.1-0.4,0.1c-0.2,0-0.4,0-0.6-0.1c-0.2-0.1-0.4-0.2-0.5-0.4c0,0,0-0.1-0.1-0.1
	c-0.1-0.1,0-0.1-0.1-0.1l-0.1-0.1v-1.3c0-0.2,0-0.4,0.1-0.6c0-0.2,0.1-0.4,0.1-0.6c0-0.2,0-0.4,0-0.6c0-0.2,0-0.4-0.1-0.6
	c-0.1-0.2-0.1-0.2-0.1-0.3c0-0.1-0.1-0.2-0.2-0.2c-0.1,0-0.2,0-0.2,0.1c-0.1,0.1-0.1,0.1-0.2,0.2c-0.1,0.1-0.2,0.3-0.2,0.5
	c0,0.1,0,0.3,0,0.4v1.5c0,0.2-0.1,0.4-0.1,0.6c-0.1,0.2-0.1,0.4-0.2,0.5c0,0.1-0.1,0.1-0.1,0.2c-0.2,0.3-0.5,0.6-0.8,0.8
	c-0.3,0.2-0.7,0.3-1.1,0.3c-0.4,0-0.7-0.1-0.9-0.4c-0.2-0.3-0.3-0.6-0.3-1C-183.5,68.2-183.4,67.9-183.4,67.6z M-182.4,69
	c0.1,0.1,0.2,0.2,0.4,0.2c0.1,0,0.3-0.1,0.4-0.1c0.3-0.2,0.6-0.6,0.8-0.9c0.2-0.4,0.2-0.8,0.2-1.2c0-0.2,0-0.3,0-0.5
	c0-0.2,0-0.4,0-0.5c0-0.3,0.1-0.6,0.2-0.9c0.1-0.3,0.3-0.5,0.6-0.7c0,0,0.1-0.1,0.2-0.1c0.1,0,0.1,0,0.2-0.1c0.1,0,0.1-0.1,0.2-0.1
	c0,0,0.1-0.1,0.3-0.1l0,0l0.1,0.1h0.1c0.2,0.1,0.3,0.2,0.4,0.3c0.1,0.1,0.2,0.3,0.3,0.4c0,0.1,0.1,0.2,0.1,0.2c0,0.1,0,0.2,0,0.3
	v1.5c0,0,0,0.1,0,0.2v0.3c0,0.1,0,0.2-0.1,0.3c-0.1,0.1,0,0.1,0,0.2v0.6c0,0,0,0.1,0,0.1c0,0.1,0,0.1,0,0.1c0,0.1,0,0.3,0.1,0.4
	c0,0.1,0.1,0.2,0.3,0.2c0.2,0,0.3,0,0.4-0.2c0.1-0.1,0.2-0.2,0.3-0.4c0.1-0.2,0.1-0.3,0.1-0.5c0-0.1,0.1-0.3,0.1-0.4v-0.1l0.1,0
	v-0.1c0,0,0-0.1,0-0.2V67c0-0.1,0-0.2,0-0.2c0.1-0.3,0.1-0.7,0.1-1.1c0-0.4,0.1-0.7,0.1-1.1c0-0.1,0-0.3,0-0.5c0-0.2,0-0.3,0-0.3
	c0,0,0-0.2,0-0.4c0-0.2-0.1-0.3-0.1-0.5c0-0.3-0.2-0.5-0.4-0.7l-0.6-0.5c-0.2-0.1-0.4-0.2-0.6-0.3c-0.2-0.1-0.4-0.1-0.6-0.1
	c-0.4,0-0.9,0.1-1.2,0.3c-0.4,0.2-0.7,0.5-1,0.8c0,0-0.1,0-0.1,0.1l-0.2,0.1c-0.1,0.1-0.2,0.1-0.2,0.2l-0.2,0.3l-0.2,0.3
	c0,0.1-0.1,0.1-0.2,0.1l-0.2,0.1l0,0c-0.1,0-0.2,0-0.3-0.1c0-0.1-0.1-0.2-0.1-0.3c0-0.1,0-0.1,0-0.2c0-0.1,0-0.2,0-0.2v-0.1
	c-0.1-0.3-0.2-0.5-0.4-0.7c-0.2-0.2-0.5-0.3-0.8-0.3c-0.2,0-0.5,0-0.7,0c-0.2,0-0.5,0.1-0.7,0.2l-0.3,0.2c-0.1,0.1-0.2,0.1-0.4,0.1
	c-0.1,0-0.1,0-0.1-0.1c0,0,0-0.1,0-0.1c0,0,0-0.1,0-0.1c0-0.1,0-0.2,0-0.3c0-0.1,0-0.2,0-0.3c0-0.2-0.1-0.4-0.3-0.4
	c-0.2,0-0.5,0.1-0.6,0.2c-0.2,0.1-0.3,0.3-0.4,0.6c-0.1,0.1-0.1,0.2-0.1,0.4c0,0.1,0,0.2-0.1,0.3c-0.1,0.4-0.2,0.8-0.2,1.2
	c0,0.4,0,0.8,0,1.3s0,0.9,0,1.3c0,0.5,0.1,0.9,0.2,1.4c0.1,0.3,0.3,0.6,0.4,0.9c0.1,0.3,0.4,0.4,0.7,0.4c0.1,0,0.3-0.1,0.4-0.2
	c0.1-0.1,0.2-0.3,0.2-0.5c0.1-0.2,0.1-0.3,0.1-0.5c0-0.2,0-0.3,0.1-0.4c0,0,0-0.1,0-0.2c0-0.1,0-0.2,0-0.3c0-0.1,0-0.2,0-0.3
	c0-0.1,0-0.1,0-0.2c0,0,0-0.1,0-0.3s0-0.3,0-0.4s0-0.3,0-0.4c0-0.1,0-0.2,0-0.3c0.1-0.3,0.1-0.5,0.2-0.8c0.1-0.2,0.3-0.4,0.6-0.5
	c0.1,0,0.2-0.1,0.2-0.1c0.1,0,0.2-0.1,0.2-0.1c0.1,0,0.2,0,0.3,0.1c0.1,0.1,0.2,0.1,0.3,0.2l0.2,0.1l0.1,0.1l0.1,0.2l0.3,0.2
	c0.2,0.3,0.3,0.6,0.3,0.9c0.1,0.3,0.1,0.6,0.1,0.9c0,0.3,0,0.7-0.1,1c-0.1,0.3-0.1,0.7-0.1,1c0,0.1,0,0.1,0,0.2c0,0.1,0,0.2,0,0.2
	C-182.5,68.9-182.5,69-182.4,69L-182.4,69z"/>
<path class="st1" d="M-175.1,65.2c0-0.1,0.1-0.2,0.1-0.3c0-0.1,0-0.2,0.1-0.3v-0.2c0,0,0-0.1,0-0.1c0,0,0-0.1,0-0.1
	c0.2-0.5,0.3-1,0.5-1.4c0.2-0.5,0.5-0.9,0.9-1.3c0,0,0,0,0.1-0.1l0.6-0.4c0.2-0.1,0.4-0.2,0.7-0.2h1.2c0.3,0.1,0.7,0.3,1,0.4
	c0.1,0,0.1,0.1,0.2,0.1c0.1,0.1,0.1,0.1,0.2,0.2c0.1,0,0.2,0,0.2,0c0.1,0,0.1,0.1,0.1,0.1c0,0.1,0.1,0.1,0.1,0.1
	c0.1,0.1,0.2,0.3,0.3,0.4c0.1,0.2,0.1,0.3,0.2,0.5c0,0.1,0,0.1,0.1,0.2c0,0.1,0.1,0.1,0.1,0.2c0.1,0.3,0.2,0.6,0.2,0.9
	c0,0.3,0,0.6,0,0.9c0,0.2,0,0.5-0.1,0.7c-0.1,0.2-0.1,0.5-0.2,0.7c-0.1,0.2-0.1,0.3-0.1,0.5c0,0.2-0.1,0.3-0.1,0.5
	c-0.5,1.4-1.9,2.3-3.4,2.2c-0.4,0-0.8-0.1-1.2-0.3c-0.4-0.1-0.7-0.3-1-0.6c0,0,0,0-0.1-0.1c0,0,0-0.1-0.1-0.1l-0.2-0.3l-0.1-0.3
	c0-0.1,0-0.1,0-0.2c0,0,0-0.1,0-0.2c0-0.1,0-0.1-0.1-0.2c0-0.1,0-0.1-0.1-0.2L-175.1,65.2z M-174.2,67.2c0,0.2,0.1,0.3,0.2,0.5
	c0.1,0.4,0.4,0.7,0.8,0.8c0.4,0.1,0.8,0.2,1.2,0.2h0.2l0.3-0.1l0.3-0.1c0.3-0.1,0.6-0.2,0.9-0.4c0.2-0.1,0.4-0.3,0.6-0.5
	c0.1-0.2,0.3-0.5,0.4-0.7c0.1-0.3,0.2-0.5,0.3-0.8s0.1-0.4,0.2-0.7c0.1-0.2,0.1-0.4,0.1-0.7c0-0.1,0-0.2,0-0.4c0-0.2,0-0.3-0.1-0.5
	c0-0.2-0.1-0.5-0.2-0.7c-0.1-0.2-0.3-0.4-0.5-0.6c-0.1-0.1-0.1-0.2-0.2-0.3c-0.1-0.1-0.1-0.1-0.2-0.2c-0.1,0-0.2-0.1-0.3-0.1
	c-0.1-0.1-0.3-0.1-0.4-0.2c-0.2-0.1-0.3-0.1-0.5-0.1c-0.2,0-0.3-0.1-0.5-0.1c-0.2,0-0.3,0-0.4,0.1l-0.4,0.1
	c-0.2,0.1-0.4,0.2-0.5,0.4c-0.1,0.2-0.3,0.4-0.4,0.6c-0.3,0.5-0.5,1.1-0.6,1.7c-0.1,0.6-0.2,1.2-0.1,1.8v0.6
	C-174.3,66.9-174.2,67-174.2,67.2L-174.2,67.2z M-172.7,64.8c0-0.1,0.1-0.2,0.2-0.3c0.1-0.1,0.3-0.1,0.4-0.2c0.1,0,0.3-0.1,0.5-0.1
	c0.2,0,0.4,0.1,0.5,0.2c0.2,0.1,0.3,0.2,0.3,0.4c0,0.1,0,0.2,0,0.2c0,0.2,0,0.4-0.1,0.6c-0.1,0.2-0.3,0.3-0.5,0.3h-0.2l-0.2,0.1
	c-0.2,0-0.5-0.1-0.6-0.2c-0.2-0.2-0.3-0.4-0.3-0.6C-172.8,65-172.8,64.9-172.7,64.8L-172.7,64.8z M-171.9,65.3
	c0.2,0,0.2-0.1,0.2-0.2c0-0.1,0-0.1-0.1-0.2c-0.1-0.1-0.1-0.1-0.2-0.1c-0.1,0-0.1,0-0.1,0.1v0.3C-172,65.3-171.9,65.3-171.9,65.3
	L-171.9,65.3z"/>
<path class="st0" d="M-162.9,67.6c0.1-0.3,0.1-0.7,0.1-1c0-0.3,0-0.7-0.1-1c-0.1-0.3-0.2-0.6-0.4-0.9l-0.2-0.1h-0.1
	c-0.2,0-0.2,0.1-0.3,0.3c0,0.1,0,0.3,0,0.4c0,0.1,0,0.3,0,0.5s0,0.5,0,0.8c0,0.3,0,0.5,0,0.8c0,0.2,0,0.4,0,0.5
	c0,0.2-0.1,0.3-0.1,0.5c0,0.2-0.1,0.3-0.1,0.4c-0.1,0.3-0.3,0.7-0.6,0.9c-0.3,0.3-0.6,0.4-1,0.4c-0.1,0-0.2,0-0.4-0.1
	c-0.1-0.1-0.2-0.1-0.3-0.2c0,0,0,0-0.1,0h-0.1c-0.2-0.1-0.3-0.3-0.4-0.5c-0.1-0.2-0.2-0.4-0.2-0.6c0-0.1,0-0.2-0.1-0.3
	c0-0.1,0-0.2-0.1-0.3c0-0.1-0.1-0.1-0.1-0.2c0-0.1,0-0.1-0.1-0.1c0-0.1,0-0.2-0.1-0.5c-0.1-0.2-0.1-0.3-0.1-0.4v-2.7
	c0-0.1,0-0.1,0-0.2c0-0.1,0-0.2,0-0.2v-0.4c0-0.2,0.1-0.5,0.2-0.7c0.1-0.2,0.1-0.5,0.2-0.7v-0.2c0.1-0.4,0.4-0.8,0.8-1
	c0.3-0.2,0.7-0.4,1.2-0.4c0.1,0,0.3,0,0.4,0.1c0.1,0.1,0.2,0.1,0.3,0.2c0.1,0,0.1,0.1,0.1,0.2c0,0.1,0,0.2,0,0.2h0.1
	c0.1,0,0.2,0,0.2-0.1c0.1-0.1,0.1-0.1,0.2-0.1h0.2h0.1h0.1c0.1,0,0.1,0,0.2,0h0.2c0.3,0,0.7,0,1,0.1c0.3,0.1,0.6,0.3,0.8,0.6
	c0,0.1,0.1,0.2,0.1,0.2c0,0.1,0.1,0.2,0.1,0.2c0.1-0.1,0.2-0.2,0.3-0.3l0.3-0.3l0.3-0.2l0.4-0.2c0.2-0.2,0.5-0.3,0.8-0.3
	c0.3-0.1,0.6-0.1,0.9-0.1c0.1,0,0.2,0,0.4,0l0.4,0.1c0.1,0,0.3,0.1,0.4,0.1c0.1,0,0.2,0.1,0.3,0.1c0.1,0.1,0.2,0.1,0.3,0.2l0.4,0.3
	c0,0,0,0,0.1,0.1l0.1,0.1c0.2,0.2,0.4,0.4,0.5,0.6c0.1,0.2,0.2,0.5,0.3,0.7c0.1,0.3,0.1,0.5,0.1,0.8c0,0.3,0,0.5,0,0.8v0.2
	c0,0.1,0,0.2,0,0.3c0,0.2,0,0.3,0,0.3c0,0.3-0.1,0.6-0.1,1s-0.1,0.8-0.1,1.2c-0.1,0.4-0.2,0.8-0.3,1.1c-0.1,0.3-0.3,0.6-0.6,0.9
	c-0.1,0.1-0.3,0.2-0.4,0.2c-0.1,0-0.3,0.1-0.5,0.1c-0.2,0-0.4,0-0.6-0.1c-0.2-0.1-0.4-0.2-0.5-0.4c0,0-0.1-0.1-0.1-0.1
	c0-0.1,0-0.1,0-0.1c0,0,0-0.1-0.1-0.1v-1.3c0-0.2,0-0.4,0.1-0.6c0-0.2,0.1-0.4,0.1-0.6c0-0.2,0-0.4,0-0.6c0-0.2,0-0.4,0-0.6
	l-0.1-0.3c0-0.1-0.1-0.2-0.2-0.2c-0.1,0-0.2,0-0.2,0.1c-0.1,0.1-0.1,0.1-0.2,0.2c-0.1,0.1-0.2,0.3-0.2,0.5c0,0.2,0,0.3,0,0.4v1.5
	c0,0.2-0.1,0.4-0.1,0.6c-0.1,0.2-0.1,0.4-0.2,0.5l-0.1,0.2c-0.2,0.3-0.5,0.6-0.8,0.8c-0.3,0.2-0.7,0.3-1.1,0.3
	c-0.4,0-0.7-0.1-0.9-0.4c-0.2-0.3-0.3-0.6-0.3-1C-162.8,68.2-162.9,67.9-162.9,67.6z M-161.9,69c0.1,0.1,0.2,0.2,0.4,0.2
	c0.1,0,0.3-0.1,0.4-0.1c0.4-0.2,0.6-0.6,0.8-0.9c0.2-0.4,0.3-0.8,0.3-1.2c0-0.2,0-0.3,0-0.5c0-0.2,0-0.4,0-0.5c0-0.3,0-0.6,0.2-0.9
	c0.1-0.3,0.3-0.5,0.6-0.7c0,0,0.1-0.1,0.2-0.1c0.1,0,0.1,0,0.2-0.1c0,0,0.1-0.1,0.1-0.1c0,0,0.1-0.1,0.3-0.1l0,0l0.1,0.1h0.2
	c0.2,0.1,0.3,0.2,0.4,0.3c0.1,0.1,0.2,0.3,0.3,0.4c0,0.1,0.1,0.2,0.1,0.2c0,0.1,0,0.2,0,0.3v1.5c0,0,0,0.1,0,0.2c0,0.1,0,0.2,0,0.3
	c0,0.1,0,0.2,0,0.3c0,0.1,0,0.1,0,0.2v0.6v0.1c0,0,0,0.1,0,0.1c0,0.1,0,0.3,0.1,0.4c0,0.1,0.1,0.2,0.3,0.2c0.2,0,0.3,0,0.4-0.2
	c0.1-0.1,0.2-0.2,0.2-0.4c0.1-0.2,0.1-0.3,0.1-0.5c0-0.2,0.1-0.3,0.1-0.4c0-0.1,0,0,0-0.1c0,0,0,0,0-0.1c0,0,0-0.1,0-0.1
	c0,0,0-0.1,0-0.2c0,0,0-0.1,0-0.2c0-0.1,0-0.2,0-0.2c0.1-0.3,0.1-0.7,0.1-1.1c0-0.4,0-0.7,0-1.1c0-0.2,0-0.3,0-0.5
	c0-0.2,0-0.3,0-0.3c0,0,0-0.2,0-0.4c0-0.2-0.1-0.3-0.1-0.5c-0.1-0.3-0.2-0.5-0.4-0.7c-0.2-0.2-0.4-0.3-0.6-0.5
	c-0.2-0.1-0.4-0.2-0.6-0.3c-0.2-0.1-0.4-0.1-0.6-0.1c-0.4,0-0.9,0.1-1.2,0.3c-0.4,0.2-0.7,0.5-1.1,0.8l-0.1,0.1c0,0,0,0.1-0.1,0.1
	c-0.1,0.1-0.2,0.1-0.2,0.2l-0.2,0.3l-0.2,0.3c0,0.1-0.1,0.1-0.2,0.1l-0.2,0.1l0,0c-0.1,0-0.2,0-0.3-0.1c0-0.1-0.1-0.2-0.1-0.3
	c0-0.1,0-0.1,0-0.2c0-0.1,0-0.2,0-0.2v-0.1c-0.1-0.3-0.2-0.5-0.4-0.7c-0.2-0.2-0.5-0.3-0.8-0.3c-0.2,0-0.5,0-0.7,0
	c-0.2,0-0.5,0.1-0.7,0.2l-0.3,0.2c-0.1,0.1-0.2,0.1-0.4,0.1c-0.1,0-0.1,0-0.1-0.1c0,0,0-0.1,0-0.1c0,0,0-0.1,0-0.1
	c0-0.1,0-0.2,0-0.3c0-0.1,0-0.2,0.1-0.3c0-0.2-0.1-0.4-0.3-0.4c-0.2,0-0.5,0.1-0.6,0.2c-0.2,0.1-0.3,0.3-0.4,0.6
	c-0.1,0.1-0.1,0.2-0.1,0.4c0,0.1,0,0.2-0.1,0.3c0,0.4,0,0.8,0,1.2c0,0.4-0.1,0.9-0.1,1.3s0,0.9,0,1.3c0,0.5,0.1,0.9,0.2,1.4
	c0.1,0.3,0.2,0.6,0.3,0.8c0.1,0.3,0.4,0.4,0.7,0.4c0.2,0,0.3-0.1,0.4-0.2c0.1-0.1,0.2-0.3,0.2-0.5c0.1-0.2,0.1-0.3,0.1-0.5
	c0-0.2,0-0.3,0.1-0.4c0,0,0-0.1,0-0.1c0-0.1,0-0.2,0-0.3c0-0.1,0-0.2,0-0.3c0-0.1,0-0.1,0-0.2c0,0,0-0.1,0-0.3s0-0.3,0-0.4
	s0-0.3,0-0.4s0-0.2,0-0.3c0.1-0.3,0.1-0.5,0.2-0.8c0.1-0.2,0.3-0.4,0.6-0.5c0.1,0,0.2-0.1,0.2-0.1c0.1,0,0.2-0.1,0.2-0.1
	c0.1,0,0.2,0,0.3,0.1c0.1,0,0.3,0.1,0.4,0.2l0.2,0.1c0.1,0.1,0.1,0.1,0.1,0.1l0.1,0.2l0.2,0.2c0.2,0.3,0.3,0.6,0.3,0.9
	c0.1,0.3,0.1,0.6,0.1,0.9c0,0.3,0,0.7-0.1,1c-0.1,0.3-0.1,0.7-0.1,1c0,0,0,0.1,0,0.2s0,0.2,0,0.2C-162,68.9-161.9,69-161.9,69z"/>
<path class="st1" d="M-154.5,65.2c0-0.1,0.1-0.2,0.1-0.3c0-0.1,0-0.2,0-0.3v-0.2c0,0,0,0,0-0.1c0,0,0-0.1,0-0.1
	c0.2-0.5,0.3-1,0.5-1.4c0.2-0.5,0.5-0.9,0.9-1.3c0,0,0,0,0.1-0.1l0.6-0.4c0.2-0.1,0.4-0.2,0.7-0.2h1.2c0.3,0.1,0.7,0.3,1,0.4
	c0.1,0,0.1,0.1,0.2,0.1c0.1,0.1,0.1,0.1,0.2,0.2c0.2,0,0.2,0,0.2,0c0.1,0,0.1,0.1,0.2,0.1c0,0.1,0.1,0.1,0.1,0.2
	c0.1,0.1,0.2,0.3,0.3,0.4c0.1,0.2,0.1,0.3,0.2,0.5c0,0.1,0,0.1,0.1,0.2c0,0.1,0.1,0.1,0.1,0.2c0.1,0.3,0.2,0.6,0.2,0.9
	c0,0.3,0,0.6,0,0.9c0,0.2,0,0.5-0.1,0.7c-0.1,0.2-0.1,0.5-0.2,0.7c-0.1,0.2-0.1,0.3-0.1,0.5c0,0.2-0.1,0.3-0.1,0.5
	c-0.5,1.4-1.9,2.3-3.4,2.3c-0.4,0-0.8-0.1-1.2-0.3c-0.4-0.1-0.8-0.3-1.1-0.7c0,0,0,0-0.1-0.1c0,0,0-0.1-0.1-0.1l-0.1-0.3l-0.1-0.2
	c0-0.1,0-0.1,0-0.2c0-0.1,0-0.1,0-0.2c0-0.1,0-0.1,0-0.2c0-0.1,0-0.1-0.1-0.2L-154.5,65.2z M-153.7,67.2c0,0.2,0.1,0.3,0.2,0.5
	c0.1,0.4,0.4,0.7,0.8,0.9c0.4,0.1,0.8,0.2,1.2,0.2h0.2l0.3-0.1l0.2-0.2c0.3-0.1,0.6-0.2,0.9-0.4c0.2-0.2,0.4-0.4,0.6-0.6
	c0.1-0.2,0.3-0.5,0.3-0.7c0.1-0.3,0.2-0.5,0.3-0.8l0.2-0.7c0.1-0.2,0.1-0.4,0.1-0.7c0-0.1,0-0.2,0-0.4c0-0.2,0-0.4-0.1-0.5
	c0-0.2-0.1-0.5-0.2-0.7c-0.1-0.2-0.2-0.4-0.4-0.6c-0.1-0.1-0.2-0.2-0.3-0.3c-0.1-0.1-0.1-0.1-0.2-0.2c-0.1-0.1-0.2-0.1-0.3-0.2
	c-0.1-0.1-0.3-0.1-0.4-0.2c-0.2-0.1-0.3-0.1-0.5-0.1c-0.2,0-0.3-0.1-0.5-0.1c-0.2,0-0.3,0-0.4,0.1l-0.4,0.1
	c-0.2,0.1-0.4,0.2-0.5,0.4c-0.1,0.2-0.3,0.4-0.4,0.6c-0.3,0.5-0.5,1.1-0.6,1.7c-0.1,0.6-0.2,1.2-0.2,1.8v0.6
	C-153.7,66.9-153.7,67-153.7,67.2L-153.7,67.2z M-152.2,64.8c0-0.2,0.1-0.3,0.2-0.3c0.1-0.1,0.3-0.1,0.4-0.2c0.1,0,0.3-0.1,0.4-0.1
	c0.2,0,0.4,0.1,0.5,0.2c0.2,0.1,0.3,0.2,0.3,0.4c0,0.1,0,0.2,0,0.2c0,0.2,0,0.4-0.1,0.6c-0.1,0.2-0.3,0.3-0.5,0.3h-0.2h-0.2
	c-0.2,0-0.5-0.1-0.6-0.2c-0.2-0.2-0.3-0.4-0.3-0.6C-152.2,65-152.2,64.9-152.2,64.8L-152.2,64.8z M-151.3,65.3
	c0.2,0,0.2-0.1,0.2-0.2c0-0.1,0-0.1-0.1-0.2c-0.1-0.1-0.1-0.1-0.2-0.1c-0.1,0-0.1,0-0.1,0.1v0.3C-151.4,65.3-151.4,65.3-151.3,65.3
	L-151.3,65.3z"/>
<path class="st2" d="M-180.2,80.1l-0.2,0.6l-0.1,0.2c-0.1,0.2-0.3,0.3-0.4,0.3c-0.2,0-0.3-0.1-0.4-0.2l-0.3-0.3l-0.1-0.2l-0.1-0.2
	l-0.1-0.4v-0.6v-0.5v-0.3v-0.1l-0.3,0.5l0,0l0,0l-0.2,0.3l-0.4,0.4l-0.3,0.4l-0.3,0.3c-0.1,0.1-0.2,0.3-0.3,0.4l-0.3,0.2l-0.2,0.2
	l-0.3,0.1l-0.1,0.1l-0.3,0.1l-0.2,0.1l0,0v0l-0.4,0l-0.5-0.3c-0.1-0.1-0.2-0.3-0.2-0.5l0.1-0.1l0,0l-0.1-0.1l-0.1-0.3l0.1-0.1
	l-0.1-0.1l0.1-0.2v-0.2l0.1-0.4v-0.4l0.1-0.1v-0.3l0.1-0.2v-0.2l0,0v-0.2l0.1-0.3v-0.2l0.1-0.1v-0.1l0.1-0.3l0.1-0.3l0.1-0.1v-0.2
	l0.2-0.2l0.1-0.3l0.4-0.1l0.2-0.2l0.6-0.2h0.2h0.1v-0.1h0.3h0.1h0.1l0.1,0.1h0.3l0,0h0.1h0.1v0.1l0,0h0.3l0.2,0.2l0.3,0.2l0.1,0.1
	l0,0v-0.2l0.1-0.2v-0.3l0.1-0.6l0,0l0.1-0.2l-0.1-0.1v-0.4l0-0.3l-0.1-0.1l0.2-0.2v-0.2c0-0.2-0.1-0.3-0.2-0.5h0.1l0.2-0.2h0.3
	c0.1,0,0.2,0,0.3,0.1c0.1,0.1,0.2,0.3,0.2,0.6h-0.1l0,0l0.1,0.1l-0.1,0.2l0.1,0.2l-0.1,0.1c0,0.1,0,0.1,0,0.2c0,0.1,0,0.1,0,0.2
	l0.1,0.1c0,0,0,0.1,0,0.2c0,0.1,0,0.2-0.1,0.3c-0.1,0.6-0.1,0.9-0.1,1c0,0,0,0.1,0,0.1c0,0.1,0,0.1,0,0.2v0.1c0,0.2,0,0.3-0.1,0.5
	V77l-0.1,0.1l0,0.1l0,0.2l0.1,0.2L-181,78l0,0.3v0.4c0,0.1,0,0.1,0,0.2c0,0,0,0.1,0,0.1l0.1,0.1l-0.1,0.3l0.1,0.2v0.1v0.1v0.1l0,0
	l0.1,0.1h0.2L-180.2,80.1z M-182.2,76.9L-182.2,76.9c-0.1,0-0.2-0.1-0.2-0.2c0-0.1-0.1-0.2-0.1-0.2c-0.1,0-0.2-0.1-0.2-0.2h-0.1
	l-0.2-0.2l-0.3-0.1h-0.3l-0.3,0.1l-0.1-0.1h-0.1v0.1h-0.1c-0.1,0.1-0.2,0.3-0.4,0.4l-0.1,0.2l-0.1,0.1l0,0.3v0.4l-0.1,0.1v0.2
	l-0.1,0.1v0.3l-0.2,0.4V79v0.4l0.1,0.1l-0.2,0.1l0.1,0.1l-0.1,0.2l0.1,0.1l0.1,0.2l0.1,0.1h0.1l0.1-0.1h0.1l0.2-0.1V80l0.2-0.1v-0.1
	l0.2-0.1l0,0l0.3-0.3l0.1-0.1l0.1-0.2h0.2l0.2-0.2l0,0l0.1-0.1l0.1-0.3l0.1-0.1l0.1-0.3l0.2-0.1l0.1-0.2v-0.1v-0.2l0.2-0.1
	L-182.2,76.9z"/>
<path class="st2" d="M-175.2,79.5c0,0.2-0.1,0.3-0.2,0.4c0,0.1-0.1,0.2-0.2,0.3h-0.1l-0.2,0.3h-0.2l-0.2,0.2l-0.1,0.2h-0.2
	c-0.1,0-0.2,0.1-0.2,0.1l-0.1,0.1h-0.1c-0.1,0-0.3,0.1-0.3,0.2l-0.2-0.2h-0.2c-0.1,0-0.2,0-0.3-0.1h-0.2l-0.1-0.1
	c-0.3,0-0.5-0.2-0.6-0.4l0,0l-0.2,0l-0.1-0.2l-0.2-0.1v-0.2l-0.2-0.6V79l0.1-0.2v-0.3l0.1-0.2v-0.1l0.1-0.2l0,0c0-0.1,0-0.2,0.1-0.2
	v-0.1v-0.3c0-0.2,0.1-0.3,0.2-0.4c0,0,0-0.1,0-0.1c0-0.1,0-0.1,0-0.2c0-0.1,0-0.2,0-0.2c0-0.1,0-0.2,0.1-0.3
	c0.1,0.1,0.2,0.2,0.3,0.2l0,0c0,0,0.1-0.1,0.1-0.1c0.1-0.2,0.2-0.4,0.3-0.6h0.1c0-0.1,0-0.2,0.1-0.3h0.1v-0.1h0.1
	c0,0,0.1-0.1,0.1-0.1c0.1-0.1,0.2-0.1,0.3-0.2c0-0.1,0.1-0.1,0.1-0.2l0.1,0l0.1-0.1c0.1-0.1,0.3-0.1,0.4-0.1c0.1,0,0.1,0,0.2,0.1
	h0.1l0.1,0.1c0.1,0.1,0.2,0.1,0.3,0.2l0.2,0.2v0.1c0.2,0.2,0.3,0.4,0.3,0.7v0.1v0.4l-0.1,0.1l-0.2,0.3l-0.2,0.3v0.2
	c-0.2,0.2-0.5,0.3-0.8,0.5c-0.1,0.1-0.2,0.2-0.4,0.2l0,0l-0.2,0.2h-0.2l-0.3,0.1l-0.2-0.1l0,0c0,0.1,0,0.2-0.1,0.3l-0.1,0.1v0.2
	l-0.1,0.2c0,0.2,0,0.4,0,0.4l0,0c0,0.1,0,0.2,0,0.3l0,0l0,0c0,0.1,0,0.1,0.1,0.2c0,0.1,0.1,0.2,0.1,0.2l0.1,0.1l0.3,0.1l0,0h0.1h0.4
	h0.3l0.1-0.1h0.1l0.1-0.2h0.1l0.3-0.1c0-0.1,0.1-0.1,0.2-0.1v-0.1c0.2,0,0.3-0.1,0.3-0.3c0.1-0.1,0.3-0.2,0.5-0.2h0.1
	C-175.2,79.1-175.2,79.3-175.2,79.5z M-176.5,75.7c0-0.1,0-0.1,0-0.2h-0.1c0,0,0,0-0.1,0l0,0l0,0l-0.1,0.1h-0.2h-0.1l-0.2,0.3
	l-0.1,0.1l-0.2,0.4l-0.1,0.1c0,0.1-0.1,0.3-0.2,0.4V77c0.1-0.1,0.2-0.1,0.3-0.1h0.1v-0.1h0.2l0.1-0.2h0.1l0.1,0.1l0.1-0.2h0.1v-0.1
	h0.2l0,0v-0.1l0.2-0.2C-176.5,75.9-176.5,75.8-176.5,75.7z"/>
<path class="st2" d="M-169.2,79.5l-0.2,0.2l-0.1,0.3l-0.1,0.1l-0.1,0.2h-0.3l-0.2,0.2h-0.3l-0.2,0.1h-0.1h-0.2v0.1h-0.5h-0.2
	l-0.2,0.1l-0.1-0.1h0.2h-0.6l0,0h-0.1l-0.2,0.1l-0.3-0.1h-0.5c-0.1,0-0.1,0-0.2,0c-0.1,0-0.1,0-0.2,0l-0.3-0.1h-0.1h-0.2
	c-0.3,0-0.5-0.3-0.5-0.8v-0.2l0.2-0.2l0.3-0.1l0.2,0.1h0.2l0,0c0.1,0,0.2,0.1,0.2,0.2h0.1v0.2h0.2l0,0l1.7-0.1l0.4-0.1l0,0v-0.1h0.2
	l0,0c0.2,0,0.4-0.1,0.5-0.2v-0.1c0,0,0-0.1,0-0.1h0.1l-0.2-0.1h-0.1l-0.1-0.1V79h-0.1l-0.1-0.1h-0.1c-0.1,0-0.2,0-0.3-0.1h-0.1h-0.1
	l-0.2,0.1l-0.1-0.1l0,0l-0.2-0.2l-0.4-0.2l-0.1-0.1l-0.5-0.1l-0.1-0.1l-0.4-0.2l-0.2-0.4l-0.2-0.2l-0.1-0.7l0.1-0.1
	c0-0.2,0.1-0.4,0.2-0.5c0.1-0.1,0.2-0.2,0.2-0.3h0.2c0.1-0.1,0.1-0.2,0.2-0.2l0.2-0.2l0.8-0.3h0.1h0.3l0.4-0.1l0.8,0.1V75
	c0.1,0,0.2,0.1,0.3,0.2v0.1l0.2,0.1l-0.1,0.3v0.1c-0.1,0.2-0.2,0.3-0.4,0.3c-0.2,0-0.3-0.1-0.4-0.2l0,0h-0.1l-0.2,0.1l-0.2-0.1
	l-0.1,0.1c-0.1,0-0.2,0-0.3,0.1c-0.1,0-0.3,0.1-0.4,0.2h-0.2l-0.1,0.1h-0.2l0,0h-0.1l-0.1,0.1l0,0l-0.1,0.2l-0.1,0.1
	c0,0.1-0.1,0.2-0.1,0.3c0,0.1,0,0.2,0.1,0.2c0,0.1,0.1,0.1,0.2,0.1v0.1l0.2,0.1c0.1,0,0.2,0.1,0.3,0.2h0.3l0.2,0.1h0.3l0.1,0.1
	l0.5,0.2l0.1,0.1l0-0.1c0.2,0,0.3,0.1,0.5,0.2h0.2v0.1h0.2l0.4,0.2c0.1,0.1,0.2,0.2,0.3,0.3l0.1,0.1v0.2c0.1,0.1,0.1,0.2,0.1,0.3
	L-169.2,79.5z"/>
<path class="st2" d="M-165.2,78.6c0,0.2,0,0.3-0.1,0.4l-0.1,0.1l-0.1,0.2l-0.2,0.1c0,0.1-0.1,0.3-0.3,0.3h-0.1l-0.2,0.2h-0.2
	c-0.1,0.2-0.2,0.3-0.4,0.2l-0.1,0.2c-0.1,0.1-0.3,0.1-0.4,0.2h-0.1l-0.1,0.1h-0.3l-0.2,0.2l-0.5-0.4l-0.2-0.5v-0.6l-0.1-0.2l0.2-1.2
	l0.1,0c0-0.1,0-0.3,0-0.4c0-0.2,0-0.3,0.1-0.5l0.1-0.3c0-0.1-0.1-0.1-0.1-0.2l0.1-0.2v-0.3l0,0c0-0.1-0.1-0.2-0.1-0.3c0,0,0,0,0-0.1
	c0,0,0,0,0-0.1c0-0.1,0-0.1,0-0.2c0-0.2,0.1-0.3,0.4-0.3h0.2c0.1,0,0.1-0.1,0.2-0.1c0.2,0,0.3,0.1,0.4,0.3l0,0c0,0.1,0,0.2,0.1,0.3
	c0,0.1,0,0.1,0,0.2l-0.1,0.7l0.1,0.2c0,0.2-0.1,0.3-0.2,0.4l0.1,0.2l-0.2,0.5c0,0.2,0,0.3-0.1,0.5v0.3l-0.1,0.2v0.1V79v0.2l0.2,0.2
	h0.2l0,0h0.1l0.2-0.1l0.1-0.1l0.1-0.1h0.1v-0.1v0l0.1,0l0.1-0.1h0.1v-0.1l0,0v-0.1l0.1-0.1l0.2-0.1c0.2-0.1,0.4-0.2,0.6-0.2h0.1
	C-165.5,78.4-165.3,78.5-165.2,78.6z M-166.6,71.6c0,0.1-0.1,0.2-0.2,0.3l0,0c-0.1,0.2-0.3,0.3-0.4,0.3l-0.2,0.2l-0.1,0.2l-0.3,0.1
	l-0.1,0.2l-0.2,0.1l-0.3,0.3l-0.2-0.2v-0.3l0.1-0.2c0-0.1,0.1-0.3,0.2-0.3v0l0.1-0.1v-0.2l0.2-0.1v-0.1h0.2c0-0.2,0.1-0.3,0.2-0.4
	l0,0l0.1-0.1l0.1-0.3C-166.9,71.1-166.6,71.3-166.6,71.6z"/>
<path class="st2" d="M-158.1,78.9l-0.1,0.5l0.1,0.2h-0.1c0.1,0.1,0.1,0.1,0.1,0.2c0,0.1,0,0.1,0,0.2l0,0c0,0.1,0,0.5-0.1,1.3v0.2
	l0,0v0v0.1v0.1l0,0v0.1l0,0v0.1v0.1c0,0.1,0,0.1-0.1,0.2l-0.1,0.2c0,0.1-0.1,0.2-0.1,0.3c-0.1,0.2-0.2,0.3-0.3,0.5l-0.2,0.2
	l-0.2,0.2l-0.2,0.1l-0.2,0.1h-0.1c-0.2,0.1-0.4,0.2-0.6,0.2h-0.1l-0.1,0l0,0c-0.1,0-0.3,0-0.4,0h-0.5l-0.3-0.1l-0.3,0.1l-0.1-0.1
	h-0.4l-0.3-0.2l-0.2-0.1c-0.3-0.1-0.6-0.4-0.6-0.7v0v-0.2c0.1-0.2,0.2-0.3,0.3-0.3c0.1,0,0.1-0.1,0.2-0.1c0.3,0,0.6,0.1,0.8,0.1v0.2
	l0.2,0.1v0.2l-0.1,0.1l0.6,0.2l0.3-0.1V83h0.1l0,0h0.2V83l0.1-0.1c0.2-0.1,0.4-0.1,0.6-0.1l0.1-0.1h0.1c0.1,0,0.1-0.1,0.2-0.2l0,0
	c0,0,0,0,0.1,0l0,0l0,0l0.4-0.4l0.2-0.3v-0.2l0.2-0.2v0l0.1-0.2l0.1-0.4l0.1-0.3v-0.2c0-0.2,0-0.4,0.1-0.6l-0.1-0.2v-0.6l-0.1-0.2
	v-0.4l-0.1-0.3v-0.5h-0.1l-0.1,0.2l-0.2,0.2l-0.2,0.4l-0.3,0.2l-0.4,0.4c-0.2,0.2-0.5,0.4-0.7,0.6l-0.1,0.2l-0.2,0.1l-0.2,0.1
	l-0.2,0.2l-0.2,0.1c-0.1,0.1-0.2,0.1-0.3,0.1c-0.2,0.1-0.4,0.2-0.7,0.2h-0.5h-0.2l-0.3-0.3l-0.3-0.3l-0.1-0.3l-0.1-0.5l0.1-0.4
	l0.1-0.5v-0.1l0.1-0.4l0-0.2c0-0.1,0.1-0.3,0.1-0.4l0.3-0.5c0-0.1,0.1-0.2,0.2-0.2l0.1-0.2l0.2-0.2c0-0.1,0.1-0.2,0.2-0.3
	c0.1,0,0.1-0.1,0.1-0.2c0-0.1,0.2-0.2,0.5-0.3h-0.1h0.1l0.2-0.3h0.2l0.1-0.1c0.1-0.1,0.3-0.2,0.4-0.2h0.1l0.3-0.1l0.2,0.1h0.2
	l0.1,0.1c0.1,0,0.2,0.1,0.2,0.1l0.2,0.2l0,0v0.1l0.1,0.2v0.1v0.2v0.1l-0.2,0.3l-0.4,0.1l-0.2-0.3l-0.2-0.1l-0.1-0.1h-0.1l-0.3,0.1
	v0.1h-0.3c-0.1,0.1-0.2,0.2-0.3,0.2c0,0-0.1,0.1-0.2,0.1l-0.1,0.2h-0.1v0.1h-0.2l-0.2,0.3l-0.1,0.1l-0.1,0.2l-0.2,0.3v0.3l-0.2,0.2
	l-0.1,0.6l-0.1,0.1v0.1l-0.2,0.5v0.2v0.2c0.1,0.1,0.1,0.2,0.1,0.3h0.1v0.1c0.2,0,0.2,0,0.3,0c0.2-0.1,0.4-0.2,0.6-0.2
	c0-0.1,0.1-0.2,0.2-0.3c0.1-0.1,0.3-0.2,0.6-0.3l0,0c0-0.1,0-0.1,0.1-0.2l0.2-0.1c0.1,0,0.1-0.1,0.1-0.2l0.2-0.1l0.1-0.1l0.3-0.5
	l0.1,0.1c0.1-0.1,0.2-0.2,0.3-0.4l0.3-0.4V77c0.2-0.3,0.3-0.5,0.4-0.8l-0.1-0.3l-0.1-0.2l0.1-0.2l-0.1-0.1v-0.2V75l0.1-0.2
	c0.1-0.1,0.2-0.1,0.3-0.1c0.1,0,0.2,0.1,0.3,0.1l0.1,0.2l0.2,0.1v0.3c0,0.1,0.1,0.2,0.1,0.3c0,0.1,0.1,0.2,0.1,0.3v0.1v0.1l0.2,0.2
	v0.2l0.1,0.1c0,0.1,0,0.1,0,0.2c0,0,0,0.1,0,0.1h0.1l-0.1,0.3l0.1,0.2c0,0.1,0.1,0.2,0.1,0.2c0,0.1,0,0.2-0.1,0.3l0.1,0.1
	L-158.1,78.9z"/>
<path class="st2" d="M-149.1,78.3c0,0.1-0.1,0.2-0.2,0.3l-0.2,0.2l0,0.3h-0.1v0.1c-0.1,0.1-0.3,0.2-0.3,0.3
	c-0.1,0.1-0.2,0.2-0.3,0.3l-0.1,0.1l-0.1,0.1h-0.1l-0.3,0.2l-0.4,0.1h-0.1h-0.2l-0.1-0.1c-0.1,0-0.2-0.1-0.3-0.2
	c-0.1,0-0.2-0.1-0.2-0.2c-0.1-0.1-0.2-0.3-0.2-0.4l0,0l-0.1-0.2l0,0l-0.1-0.2l-0.2-0.2v-0.3l-0.1-0.2l-0.2-1.1c0-0.1,0-0.3,0-0.4
	v-0.1l-0.1-0.1l-0.1,0.2l-0.5,0.5l-0.2,0.3l-0.1,0.2l-0.1,0.2l-0.1,0.1v0.1l-0.2,0.4l-0.1,0.1h-0.1l-0.2,0.1c0,0.2-0.1,0.3-0.3,0.3
	l0,0c0,0.1-0.1,0.3-0.3,0.4l-0.1,0.2c-0.1,0.1-0.3,0.2-0.4,0.3c0,0.1-0.1,0.2-0.1,0.2l-0.1,0.1c0,0.1-0.1,0.2-0.4,0.3h-0.2
	c-0.2,0-0.3-0.1-0.4-0.3l-0.2-0.3l0.1-0.3v-0.2l0,0v-0.2l-0.2-0.3l0.1-0.2l-0.1-0.1l0.1-0.2v-0.3l0,0l0.1-0.2v-0.1v-0.2v-0.4
	c0-0.1,0-0.1,0-0.2v-0.1v-0.1v-0.4v-0.8l0.2-0.4c0.2,0,0.4,0.1,0.5,0.2c0.1,0.1,0.2,0.3,0.2,0.4v0.1l0.1,0.1l-0.1,0.3l0.1,0.5
	l-0.1,0.2v0.3v0.2l-0.1,0.2l0.1,0.2l-0.1,0.2v0.2l0.1,0.1l-0.1,0.3v0.1V79l0.1,0.1l0.2-0.2c0-0.1,0-0.2,0.1-0.3c0-0.1,0-0.2,0.1-0.2
	l0,0l0.2-0.2v0v-0.1l0.2-0.2l0.1-0.1l0.1-0.1l0.5-0.6l-0.4,0.5l0,0v-0.1l0.2-0.2l0.1-0.2V77l0.2-0.1v-0.2l0,0v-0.1v-0.1l0.2-0.2
	v-0.1c0,0,0,0,0-0.1c0-0.2,0.1-0.2,0.3-0.3c0.1-0.2,0.2-0.3,0.3-0.3l0.1-0.1l0,0c0.1-0.1,0.2-0.2,0.4-0.2l0.1-0.1h0.4l0.2,0.2
	l0.1,0.1l0,0h0.1v0.3l0.2,0.1l-0.1,0.3l0.1,0.3v0.4l0.1,0.5v0.5l0.1,0.3l0.1,0.3c0.1,0.1,0.1,0.1,0.1,0.2l0.2,0.1V79l0.1,0.2l0,0
	l0,0l0.1,0.1v-0.1h0.1c0.1,0,0.2-0.1,0.3-0.3h0.2v-0.1c0-0.1,0.1-0.1,0.2-0.2h0.1l0.1,0v0v0c0.1-0.1,0.1-0.2,0.2-0.3l0.1-0.1V78
	l0.1-0.2l0.2-0.1l0.4,0.1l0.1,0.4v0.1L-149.1,78.3z"/>
<image style="overflow:visible;" width="209" height="209" xlink:href="../paw_logo-01.png"  transform="matrix(0.24 0 0 0.24 -135.08 -44.94)">
</image>
<g>
	<path class="st3" d="M9.8,8.1c0.1-0.3,0.1-0.7,0.1-1c0-0.3,0-0.7-0.1-1C9.7,5.9,9.5,5.6,9.4,5.4L9.2,5.1H9.1
		c-0.1,0-0.2,0.1-0.3,0.3c0,0.1,0,0.3,0,0.4c0,0.1,0,0.3,0,0.5s0,0.5,0,0.8c0,0.3,0,0.5,0,0.8s0,0.4,0,0.5c0,0.2,0,0.3-0.1,0.5
		c0,0.2-0.1,0.3-0.1,0.4C8.5,9.6,8.3,9.9,8,10.1c-0.3,0.3-0.6,0.4-1,0.4c-0.1,0-0.2,0-0.3-0.1c-0.1-0.1-0.2-0.1-0.3-0.2
		c0,0,0,0-0.1,0l-0.2-0.1C5.9,10,5.8,9.8,5.6,9.7C5.5,9.5,5.4,9.3,5.4,9.1c0,0,0-0.1,0-0.3c0-0.1,0-0.2-0.1-0.3
		c0-0.1-0.1-0.1-0.1-0.2c0-0.1,0-0.1-0.1-0.1c0-0.1,0-0.2-0.1-0.4c0-0.1,0-0.3,0-0.4V4.8c0-0.1,0-0.1,0-0.2c0-0.1,0-0.2,0-0.2V4
		c0-0.2,0.1-0.5,0.2-0.7C5.3,3,5.4,2.8,5.5,2.6V2.4c0.1-0.4,0.4-0.8,0.8-1C6.6,1.1,7,1,7.4,1C7.6,1,7.7,1,7.8,1
		C7.9,1.1,8,1.2,8.1,1.2c0.1,0,0.1,0.1,0.1,0.2c0,0.1,0,0.2,0,0.2h0.1c0.1,0,0.2,0,0.2-0.1c0.1-0.1,0.1-0.1,0.2-0.1h0.2H9h0.1
		c0.1,0,0.1,0,0.2,0h0.2c0.3,0,0.7,0,1,0.1c0.3,0.1,0.6,0.3,0.8,0.6c0,0.1,0.1,0.2,0.1,0.2c0,0.1,0.1,0.2,0.1,0.2
		c0.1,0,0.2-0.1,0.3-0.2l0.3-0.3c0.1-0.1,0.2-0.1,0.3-0.2l0.3-0.2c0.2-0.2,0.5-0.3,0.8-0.3c0.3-0.1,0.6-0.1,0.9-0.1
		c0.1,0,0.2,0,0.4,0l0.3,0.1c0.1,0,0.3,0.1,0.4,0.1c0.1,0,0.2,0.1,0.3,0.1c0.1,0.1,0.2,0.1,0.3,0.2l0.4,0.3c0,0,0,0,0.1,0.1l0.1,0.1
		c0.2,0.2,0.4,0.4,0.5,0.6c0.1,0.2,0.2,0.5,0.3,0.7c0.1,0.3,0.1,0.5,0.1,0.8c0,0.3,0,0.5,0,0.8v0.2c0,0.1,0,0.2,0,0.3
		c0,0.1,0,0.2,0,0.3c0,0.3-0.1,0.6-0.1,1c0,0.4-0.1,0.7-0.2,1.1c-0.1,0.4-0.2,0.8-0.3,1.1c-0.1,0.3-0.3,0.6-0.6,0.9
		c-0.1,0.1-0.3,0.2-0.4,0.2c-0.1,0-0.3,0.1-0.4,0c-0.2,0-0.4,0-0.6-0.1c-0.2-0.1-0.4-0.2-0.5-0.4c0,0,0-0.1-0.1-0.1
		c-0.1-0.1,0-0.1-0.1-0.1l-0.1-0.1V8.2c0-0.2,0-0.4,0.1-0.6c0-0.2,0.1-0.4,0.1-0.6c0-0.2,0-0.4,0-0.6c0-0.2,0-0.4-0.1-0.6
		c-0.1-0.2-0.1-0.2-0.1-0.3c0-0.1-0.1-0.2-0.2-0.2c-0.1,0-0.2,0-0.2,0.1c-0.1,0.1-0.1,0.1-0.2,0.2c-0.1,0.1-0.2,0.3-0.2,0.5
		c0,0.1,0,0.3,0,0.4v1.5c0,0.2-0.1,0.4-0.1,0.6C13.2,8.8,13.1,9,13,9.2c0,0.1-0.1,0.1-0.1,0.2c-0.2,0.3-0.5,0.6-0.8,0.8
		c-0.3,0.2-0.7,0.3-1.1,0.3c-0.3,0-0.7-0.1-0.9-0.4c-0.2-0.3-0.3-0.6-0.3-1C9.8,8.8,9.8,8.5,9.8,8.1z M10.8,9.6
		c0.1,0.1,0.2,0.2,0.4,0.1c0.1,0,0.3-0.1,0.4-0.1c0.3-0.2,0.6-0.6,0.7-0.9c0.2-0.4,0.2-0.8,0.2-1.2c0-0.2,0-0.3,0-0.5
		c0-0.2,0-0.4,0-0.5c0-0.3,0.1-0.6,0.2-0.9c0.1-0.3,0.3-0.5,0.6-0.7c0,0,0.1,0,0.2,0c0.1,0,0.1,0,0.2-0.1c0.1,0,0.1-0.1,0.2-0.1
		c0,0,0.1-0.1,0.3-0.1l0,0l0.1,0.1h0.1c0.2,0.1,0.3,0.2,0.4,0.3C14.9,5,15,5.2,15.1,5.3c0,0.1,0.1,0.2,0.1,0.2c0,0.1,0,0.2,0,0.3
		v1.5c0,0,0,0.1,0,0.2v0.3c0,0.1,0,0.2,0,0.3c0,0.1,0,0.1,0,0.1v0.6c0,0,0,0.1,0,0.1c0,0.1,0,0.1,0,0.1c0,0.1,0,0.3,0.1,0.4
		c0,0.1,0.1,0.1,0.3,0.1c0.2,0,0.3,0,0.4-0.1c0.1-0.1,0.2-0.2,0.3-0.4c0.1-0.2,0.1-0.3,0.1-0.5c0-0.1,0.1-0.3,0.1-0.4V8.2l0.1,0V8
		c0,0,0-0.1,0-0.1V7.6c0-0.1,0-0.2,0-0.2c0.1-0.3,0.1-0.7,0.1-1.1c0-0.4,0.1-0.7,0.1-1.1c0-0.1,0-0.3,0-0.5s0-0.3,0-0.3
		c0,0,0-0.2,0-0.4c0-0.2-0.1-0.3-0.1-0.5c0-0.3-0.2-0.5-0.4-0.7l-0.6-0.5c-0.2-0.1-0.4-0.2-0.6-0.3c-0.2-0.1-0.4-0.1-0.6-0.1
		c-0.4,0-0.9,0.1-1.2,0.3c-0.4,0.2-0.7,0.5-1,0.7c0,0-0.1,0-0.1,0.1L12,3.2c-0.1,0.1-0.2,0.1-0.2,0.2l-0.2,0.3l-0.2,0.3
		c0,0.1-0.1,0.1-0.2,0.1L11.1,4l0,0c-0.1,0-0.2,0-0.3-0.1c0-0.1-0.1-0.2-0.1-0.3c0-0.1,0-0.1,0-0.2c0-0.1,0-0.2,0-0.2V3.1
		c-0.1-0.3-0.2-0.5-0.4-0.7C10.2,2.1,9.9,2,9.6,2c-0.2,0-0.5,0-0.7,0c-0.2,0-0.5,0.1-0.7,0.2L7.9,2.5C7.8,2.6,7.7,2.7,7.5,2.7
		c-0.1,0-0.1,0-0.1-0.1c0,0,0-0.1,0-0.1c0,0,0-0.1,0-0.1c0-0.1,0-0.2,0-0.3c0-0.1,0-0.2,0-0.3c0-0.2-0.1-0.4-0.3-0.4
		c-0.2,0-0.5,0.1-0.6,0.2C6.3,1.9,6.2,2.1,6.1,2.4C6,2.5,6,2.6,6,2.7C6,2.8,6,3,5.9,3.1C5.8,3.5,5.8,3.9,5.7,4.3c0,0.4,0,0.8,0,1.3
		s0,0.9,0,1.3c0,0.5,0.1,0.9,0.2,1.4C6,8.6,6.2,8.9,6.4,9.1c0.1,0.3,0.4,0.4,0.7,0.4c0.1,0,0.3-0.1,0.4-0.2c0.1-0.1,0.2-0.3,0.2-0.5
		c0.1-0.2,0.1-0.3,0.1-0.5c0-0.2,0-0.3,0.1-0.4c0,0,0-0.1,0-0.1c0-0.1,0-0.2,0-0.3c0-0.1,0-0.2,0-0.3c0-0.1,0-0.1,0-0.2
		c0,0,0-0.1,0-0.3s0-0.3,0-0.4c0-0.1,0-0.3,0-0.4c0-0.1,0-0.2,0-0.3C7.9,5.5,8,5.2,8.1,5c0.1-0.2,0.3-0.4,0.6-0.5
		c0.1,0,0.2-0.1,0.2-0.1c0.1,0,0.2-0.1,0.2-0.1c0.1,0,0.2,0,0.3,0.1c0.1,0.1,0.2,0.1,0.3,0.2l0.2,0.1L10,4.8L10.1,5l0.3,0.2
		c0.2,0.3,0.3,0.6,0.3,0.9c0.1,0.3,0.1,0.6,0.1,0.9c0,0.3,0,0.7-0.1,1c-0.1,0.3-0.1,0.7-0.1,1c0,0.1,0,0.1,0,0.2c0,0.1,0,0.2,0,0.2
		C10.7,9.4,10.7,9.5,10.8,9.6L10.8,9.6z"/>
	<path class="st4" d="M18.1,5.7c0-0.1,0.1-0.2,0.1-0.3c0-0.1,0-0.2,0-0.3V5c0,0,0-0.1,0-0.1c0,0,0-0.1,0-0.1c0.2-0.5,0.3-1,0.5-1.4
		c0.2-0.5,0.5-0.9,0.9-1.3c0,0,0,0,0.1-0.1l0.6-0.4c0.2-0.1,0.4-0.2,0.7-0.2h1.2c0.3,0.1,0.7,0.3,1,0.4c0.1,0,0.1,0.1,0.2,0.1
		c0.1,0.1,0.1,0.1,0.2,0.2c0.1,0,0.2,0,0.2,0c0.1,0,0.1,0.1,0.1,0.1c0,0.1,0.1,0.1,0.1,0.1c0.1,0.1,0.2,0.3,0.3,0.4
		c0.1,0.2,0.1,0.3,0.2,0.4c0,0.1,0,0.1,0.1,0.2c0,0.1,0.1,0.1,0.1,0.2c0.1,0.3,0.2,0.6,0.2,0.9c0,0.3,0,0.6,0,0.9
		c0,0.2,0,0.5-0.1,0.7c-0.1,0.2-0.1,0.5-0.2,0.7c-0.1,0.2-0.1,0.3-0.1,0.5c0,0.2-0.1,0.3-0.1,0.5c-0.5,1.4-1.9,2.3-3.4,2.2
		c-0.4,0-0.8-0.1-1.2-0.3c-0.4-0.1-0.7-0.3-1-0.6c0,0,0,0-0.1-0.1c0,0,0-0.1-0.1-0.1l-0.2-0.3l-0.1-0.3c0-0.1,0-0.1,0-0.2
		c0,0,0-0.1,0-0.1c0-0.1,0-0.1,0-0.2c0-0.1,0-0.1-0.1-0.2L18.1,5.7z M19,7.7c0,0.2,0.1,0.3,0.2,0.5c0.1,0.4,0.4,0.7,0.8,0.8
		c0.4,0.1,0.8,0.2,1.2,0.2h0.2l0.3-0.1l0.3-0.1c0.3-0.1,0.6-0.2,0.9-0.4c0.2-0.1,0.4-0.3,0.6-0.5c0.1-0.2,0.3-0.5,0.3-0.7
		c0.1-0.3,0.2-0.5,0.3-0.8C24,6.3,24,6.2,24.1,6c0.1-0.2,0.1-0.4,0.1-0.7c0-0.1,0-0.2,0-0.4c0-0.2,0-0.3-0.1-0.5
		c0-0.2-0.1-0.5-0.2-0.7c-0.1-0.2-0.3-0.4-0.5-0.6c-0.1-0.1-0.1-0.2-0.2-0.3c-0.1-0.1-0.1-0.1-0.2-0.2c-0.1,0-0.2-0.1-0.3-0.1
		c-0.1-0.1-0.3-0.1-0.4-0.2c-0.2-0.1-0.3-0.1-0.5-0.1c-0.2,0-0.3-0.1-0.5-0.1c-0.2,0-0.3,0-0.4,0.1l-0.4,0.1
		c-0.2,0.1-0.4,0.2-0.5,0.4c-0.1,0.2-0.3,0.4-0.4,0.6c-0.3,0.5-0.5,1.1-0.6,1.6c-0.1,0.6-0.2,1.2-0.1,1.7v0.6
		C18.9,7.4,19,7.6,19,7.7L19,7.7z M20.5,5.3c0-0.1,0.1-0.2,0.2-0.3c0.1-0.1,0.3-0.1,0.4-0.1c0.1,0,0.3-0.1,0.4-0.1
		c0.2,0,0.4,0.1,0.5,0.2c0.2,0.1,0.3,0.2,0.3,0.4c0,0.1,0,0.2,0,0.2c0,0.2,0,0.4-0.1,0.6c-0.1,0.2-0.3,0.3-0.5,0.3h-0.2l-0.2,0.1
		c-0.2,0-0.5-0.1-0.6-0.2c-0.2-0.2-0.3-0.4-0.3-0.6C20.4,5.6,20.4,5.4,20.5,5.3L20.5,5.3z M21.3,5.9c0.2,0,0.2-0.1,0.2-0.2
		c0-0.1,0-0.1-0.1-0.2c-0.1-0.1-0.1-0.1-0.2-0.1c-0.1,0-0.1,0-0.1,0.1v0.3C21.2,5.8,21.3,5.8,21.3,5.9L21.3,5.9z"/>
	<path class="st3" d="M30.3,8.1c0.1-0.3,0.1-0.7,0.1-1c0-0.3,0-0.7-0.1-1c-0.1-0.3-0.2-0.6-0.4-0.9l-0.2-0.1h-0.1
		c-0.2,0-0.2,0.1-0.3,0.3c0,0.1,0,0.3,0,0.4c0,0.1,0,0.3,0,0.5s0,0.5,0,0.8c0,0.3,0,0.5,0,0.8s0,0.4,0,0.5c0,0.2-0.1,0.3-0.1,0.5
		c0,0.2-0.1,0.3-0.1,0.4c-0.1,0.3-0.3,0.6-0.6,0.9c-0.3,0.3-0.6,0.4-1,0.4c-0.1,0-0.2,0-0.3-0.1c-0.1-0.1-0.2-0.1-0.3-0.2
		c0,0,0,0-0.1,0h-0.1c-0.2-0.1-0.3-0.3-0.4-0.5C26.1,9.6,26,9.4,26,9.2c0-0.1,0-0.2-0.1-0.3c0-0.1,0-0.2,0-0.3
		c0-0.1-0.1-0.1-0.1-0.2c0-0.1,0-0.1-0.1-0.1c0-0.1,0-0.2-0.1-0.4c-0.1-0.2,0-0.3,0-0.4V4.8c0-0.1,0-0.1,0-0.2c0-0.1,0-0.2,0-0.2V4
		c0-0.2,0.1-0.5,0.2-0.7C25.9,3,25.9,2.8,26,2.6V2.4c0.1-0.4,0.4-0.8,0.8-1C27.1,1.1,27.5,1,27.9,1c0.1,0,0.3,0,0.4,0.1
		c0.1,0.1,0.2,0.1,0.3,0.2c0.1,0,0.1,0.1,0.1,0.2c0,0.1,0,0.2,0,0.2h0.1c0.1,0,0.2,0,0.2-0.1c0.1-0.1,0.1-0.1,0.2-0.1h0.2h0.1h0.1
		c0.1,0,0.1,0,0.2,0H30c0.3,0,0.7,0,1,0.1c0.3,0.1,0.6,0.3,0.8,0.6c0,0.1,0.1,0.2,0.1,0.2c0,0.1,0.1,0.2,0.1,0.2
		c0.1-0.1,0.2-0.2,0.3-0.3l0.3-0.3l0.3-0.2l0.4-0.2c0.2-0.2,0.5-0.3,0.8-0.3c0.3-0.1,0.6-0.1,0.9-0.1c0.1,0,0.2,0,0.4,0l0.3,0.1
		c0.1,0,0.3,0.1,0.4,0.1c0.1,0,0.2,0.1,0.3,0.1c0.1,0.1,0.2,0.1,0.3,0.2L37,2c0,0,0,0,0.1,0.1l0.1,0.1c0.2,0.2,0.4,0.4,0.5,0.6
		c0.1,0.2,0.2,0.5,0.3,0.7C38,3.8,38,4,38,4.3c0,0.3,0,0.5,0,0.8v0.2c0,0.1,0,0.2,0,0.3c0,0.2,0,0.3,0,0.3c0,0.3-0.1,0.6-0.1,1
		c0,0.4-0.1,0.8-0.1,1.2c-0.1,0.4-0.2,0.8-0.3,1.1c-0.1,0.3-0.3,0.6-0.6,0.9c-0.1,0.1-0.3,0.2-0.4,0.2c-0.1,0-0.3,0.1-0.4,0
		c-0.2,0-0.4,0-0.6-0.1c-0.2-0.1-0.4-0.2-0.5-0.4c0,0,0-0.1-0.1-0.1c0-0.1,0-0.1,0-0.1c0,0,0-0.1-0.1-0.1V8.2c0-0.2,0-0.4,0.1-0.6
		c0-0.2,0.1-0.4,0.1-0.6c0-0.2,0-0.4,0-0.6c0-0.2,0-0.4,0-0.6l-0.1-0.3c0-0.1-0.1-0.2-0.2-0.2c-0.1,0-0.2,0-0.2,0.1
		c-0.1,0.1-0.1,0.1-0.2,0.2C34,5.8,34,5.9,34,6.1c0,0.2,0,0.3,0,0.4v1.5c0,0.2-0.1,0.4-0.1,0.6c-0.1,0.2-0.1,0.4-0.2,0.5l-0.1,0.2
		c-0.2,0.3-0.5,0.6-0.8,0.8c-0.3,0.2-0.7,0.3-1.1,0.3c-0.3,0-0.7-0.1-0.9-0.4c-0.2-0.3-0.3-0.6-0.3-1C30.3,8.8,30.3,8.5,30.3,8.1z
		 M31.3,9.6c0.1,0.1,0.2,0.2,0.4,0.1c0.1,0,0.3-0.1,0.4-0.1c0.4-0.2,0.6-0.6,0.8-0.9c0.2-0.4,0.3-0.8,0.3-1.2c0-0.2,0-0.3,0-0.5
		c0-0.2,0-0.4,0-0.5c0-0.3,0-0.6,0.2-0.9c0.1-0.3,0.3-0.5,0.6-0.7c0,0,0.1,0,0.1,0c0.1,0,0.1,0,0.2-0.1c0,0,0.1-0.1,0.1-0.1
		c0,0,0.1-0.1,0.3-0.1l0,0l0.1,0.1h0.1c0.2,0.1,0.3,0.2,0.4,0.3c0.1,0.1,0.2,0.3,0.3,0.4c0,0.1,0.1,0.2,0.1,0.2c0,0.1,0,0.2,0,0.3
		v1.5c0,0,0,0.1,0,0.2c0,0.1,0,0.2,0,0.3c0,0.1,0,0.2,0,0.3c0,0.1,0,0.1,0,0.1v0.6V9c0,0,0,0.1,0,0.1c0,0.1,0,0.3,0.1,0.4
		c0,0.1,0.1,0.1,0.3,0.1c0.2,0,0.3,0,0.4-0.1c0.1-0.1,0.2-0.2,0.2-0.4c0.1-0.2,0.1-0.3,0.1-0.5c0-0.2,0.1-0.3,0.1-0.4
		c0-0.1,0,0,0-0.1c0,0,0,0,0-0.1c0,0,0-0.1,0-0.1c0,0,0-0.1,0-0.1c0,0,0-0.1,0-0.2c0-0.1,0-0.2,0-0.2C37,7,37,6.6,37.1,6.3
		c0-0.4,0-0.7,0-1.1c0-0.2,0-0.3,0-0.5c0-0.2,0-0.3,0-0.3c0,0,0-0.2,0-0.4c0-0.2-0.1-0.3-0.1-0.5c-0.1-0.3-0.2-0.5-0.4-0.7
		c-0.2-0.2-0.4-0.3-0.6-0.5c-0.2-0.1-0.4-0.2-0.6-0.3C35.2,2,35,1.9,34.8,1.9c-0.4,0-0.9,0.1-1.2,0.3c-0.4,0.2-0.7,0.5-1.1,0.7
		L32.4,3c0,0,0,0.1-0.1,0.1c-0.1,0.1-0.1,0.1-0.1,0.2L32,3.6l-0.2,0.3c0,0.1-0.1,0.1-0.2,0.1L31.4,4l0,0c-0.1,0-0.2,0-0.3-0.1
		c0-0.1-0.1-0.2-0.1-0.3c0-0.1,0-0.1,0-0.2c0-0.1,0-0.2,0-0.2V3.1c-0.1-0.3-0.2-0.5-0.4-0.7C30.5,2.1,30.2,2,29.9,2
		c-0.2,0-0.5,0-0.7,0c-0.2,0-0.5,0.1-0.7,0.2l-0.3,0.2c-0.1,0.1-0.2,0.1-0.4,0.1c-0.1,0-0.1,0-0.1-0.1c0,0,0-0.1,0-0.1
		c0,0,0-0.1,0-0.1c0-0.1,0-0.2,0-0.3c0-0.1,0-0.2,0-0.3c0-0.2-0.1-0.4-0.3-0.4c-0.2,0-0.5,0.1-0.6,0.2c-0.2,0.1-0.3,0.3-0.4,0.6
		c-0.1,0.1-0.1,0.2-0.1,0.4c0,0.1,0,0.2-0.1,0.3c0,0.4,0,0.8,0,1.2c0,0.4,0,0.8,0,1.3s0,0.9,0,1.3c0,0.5,0.1,0.9,0.2,1.4
		c0.1,0.3,0.2,0.6,0.3,0.8c0.1,0.3,0.4,0.4,0.7,0.4c0.2,0,0.3-0.1,0.4-0.2c0.1-0.1,0.2-0.3,0.2-0.5c0.1-0.2,0.1-0.3,0.1-0.5
		c0-0.2,0-0.3,0.1-0.4c0,0,0-0.1,0-0.1c0-0.1,0-0.2,0-0.3c0-0.1,0-0.2,0-0.3c0-0.1,0-0.1,0-0.2c0,0,0-0.1,0-0.3s0-0.3,0-0.4
		s0-0.3,0-0.4s0-0.2,0-0.3c0.1-0.3,0.1-0.5,0.2-0.7c0.1-0.2,0.3-0.4,0.6-0.5c0.1,0,0.2-0.1,0.2-0.1c0.1,0,0.2-0.1,0.2-0.1
		c0.1,0,0.2,0,0.3,0.1c0.1,0,0.3,0.1,0.4,0.2l0.2,0.1c0.1,0.1,0.1,0.1,0.1,0.1l0.1,0.2l0.2,0.2C31,5.4,31.1,5.7,31.2,6
		c0.1,0.3,0.1,0.6,0.1,0.9c0,0.3,0,0.7-0.1,1c-0.1,0.3-0.1,0.7-0.1,1c0,0,0,0.1,0,0.2s0,0.2,0,0.2C31.1,9.4,31.2,9.5,31.3,9.6z"/>
	<path class="st4" d="M38.6,5.7c0-0.1,0.1-0.2,0.1-0.3c0-0.1,0-0.2,0-0.3V5c0,0,0,0,0-0.1c0,0,0-0.1,0-0.1c0.2-0.5,0.3-1,0.5-1.4
		c0.2-0.5,0.5-0.9,0.9-1.3c0,0,0,0,0.1-0.1l0.6-0.4c0.2-0.1,0.4-0.2,0.7-0.2h1.2c0.3,0.1,0.7,0.3,1,0.4c0.1,0,0.1,0.1,0.2,0.1
		C43.9,2,44,2.1,44.1,2.1c0.2,0,0.2,0,0.2,0c0.1,0,0.1,0.1,0.2,0.1c0,0.1,0.1,0.1,0.1,0.1c0.1,0.1,0.2,0.3,0.3,0.4
		C44.9,3,44.9,3.2,45,3.3c0,0.1,0,0.1,0.1,0.2c0,0.1,0.1,0.1,0.1,0.2c0.1,0.3,0.2,0.6,0.2,0.9c0,0.3,0,0.6,0,0.9
		c0,0.2,0,0.5-0.1,0.7c-0.1,0.2-0.1,0.5-0.2,0.7C45,7,45,7.1,44.9,7.3c0,0.2-0.1,0.3-0.1,0.5c-0.5,1.4-1.9,2.3-3.3,2.3
		c-0.4,0-0.8-0.1-1.2-0.3c-0.4-0.1-0.8-0.3-1.1-0.7c0,0,0,0-0.1-0.1c0,0,0-0.1-0.1-0.1l-0.1-0.3l-0.1-0.2c0-0.1,0-0.1,0-0.2
		c0-0.1,0-0.1,0-0.1c0-0.1,0-0.1,0-0.2c0-0.1,0-0.1-0.1-0.2L38.6,5.7z M39.5,7.7c0,0.2,0.1,0.3,0.2,0.5c0.1,0.4,0.4,0.7,0.8,0.9
		c0.4,0.1,0.8,0.2,1.1,0.2h0.2l0.3-0.1l0.2-0.1c0.3-0.1,0.6-0.2,0.9-0.4c0.2-0.2,0.4-0.4,0.5-0.6c0.1-0.2,0.3-0.5,0.3-0.7
		c0.1-0.3,0.2-0.5,0.3-0.8l0.2-0.7c0.1-0.2,0.1-0.4,0.1-0.7c0-0.1,0-0.2,0-0.4c0-0.2,0-0.3-0.1-0.5c0-0.2-0.1-0.5-0.2-0.7
		c-0.1-0.2-0.2-0.4-0.4-0.6c-0.1-0.1-0.2-0.2-0.3-0.3c-0.1-0.1-0.1-0.1-0.2-0.2c-0.1-0.1-0.2-0.1-0.3-0.2c-0.1-0.1-0.3-0.1-0.4-0.2
		c-0.1-0.1-0.3-0.1-0.5-0.1c-0.2,0-0.3-0.1-0.5-0.1c-0.2,0-0.3,0-0.4,0.1L41,2.3c-0.2,0.1-0.4,0.2-0.5,0.4c-0.1,0.2-0.3,0.4-0.4,0.6
		c-0.3,0.5-0.5,1.1-0.6,1.6c-0.1,0.6-0.2,1.2-0.1,1.7v0.6C39.4,7.4,39.4,7.6,39.5,7.7L39.5,7.7z M40.9,5.3C40.9,5.1,41,5,41.1,5
		c0.1-0.1,0.3-0.1,0.4-0.1c0.1,0,0.3-0.1,0.4-0.1c0.2,0,0.4,0.1,0.5,0.2c0.2,0.1,0.3,0.2,0.3,0.4c0,0.1,0,0.2,0,0.2
		c0,0.2,0,0.4-0.1,0.6c-0.1,0.2-0.3,0.3-0.5,0.3H42h-0.2c-0.2,0-0.5-0.1-0.6-0.2c-0.2-0.2-0.3-0.4-0.3-0.6
		C40.9,5.5,40.9,5.4,40.9,5.3L40.9,5.3z M41.8,5.9C42,5.9,42,5.8,42,5.6c0-0.1,0-0.1-0.1-0.2c-0.1-0.1-0.1-0.1-0.2-0.1
		c-0.1,0-0.1,0-0.1,0.1v0.3C41.7,5.8,41.7,5.9,41.8,5.9L41.8,5.9z"/>
	<path class="st3" d="M13,20.6l-0.2,0.6l-0.1,0.2c-0.1,0.2-0.3,0.3-0.4,0.3c-0.2,0-0.3-0.1-0.4-0.2l-0.3-0.3l-0.1-0.2l-0.1-0.2
		l-0.1-0.4v-0.6v-0.5v-0.3v-0.1l-0.3,0.5l0,0l0,0l-0.2,0.3L10.5,20l-0.3,0.4l-0.3,0.3c-0.1,0.1-0.2,0.3-0.3,0.4l-0.3,0.2l-0.2,0.2
		l-0.3,0.1l-0.1,0.1l-0.3,0.1l-0.2,0.1l0,0v0l-0.4,0l-0.5-0.3c-0.1-0.1-0.2-0.3-0.2-0.5l0,0l0,0L7,20.9l-0.1-0.3L7,20.6l-0.1-0.1
		L7,20.2V20l0.1-0.4v-0.4l0.1-0.1v-0.3l0.1-0.2v-0.2l0,0v-0.2L7.4,18v-0.2l0.1-0.1v-0.1l0.1-0.3L7.6,17l0.1-0.1v-0.2l0.2-0.2
		l0.1-0.3l0.4-0.1l0.2-0.2l0.6-0.2h0.2h0.1v-0.1h0.3h0.1h0.1l0.1,0.1h0.3l0,0h0.1h0.1v0.1l0,0h0.3L11,16l0.3,0.2l0.1,0.1l0,0v-0.2
		l0.1-0.2v-0.3l0.1-0.5l0,0l0.1-0.2l0-0.1v-0.4l0-0.3L11.4,14l0.2-0.2v-0.1c0-0.2-0.1-0.3-0.2-0.5h0.1l0.1-0.2H12
		c0.1,0,0.2,0,0.3,0.1c0.1,0,0.2,0.3,0.2,0.6h-0.1l0,0l0.1,0.1L12.5,14l0.1,0.2l-0.1,0.1c0,0.1,0,0.1,0,0.2c0,0.1,0,0.1,0,0.2
		l0.1,0.1c0,0,0,0.1,0,0.2c0,0.1,0,0.2-0.1,0.3c0,0.5-0.1,0.9-0.1,1c0,0,0,0.1,0,0.1c0,0.1,0,0.1,0,0.2v0.1c0,0.2,0,0.3-0.1,0.5v0.4
		l-0.1,0.1l0,0.1l0,0.2l0.1,0.2l-0.1,0.4l0,0.3v0.4c0,0.1,0,0.1,0,0.2c0,0,0,0.1,0,0.1l0.1,0.1l-0.1,0.3l0,0.2v0.1v0.1v0.1l0,0
		l0.1,0.1h0.2L13,20.6z M11,17.4L11,17.4c-0.1,0-0.2-0.1-0.2-0.2c0-0.1-0.1-0.2-0.1-0.2c-0.1,0-0.2-0.1-0.2-0.2h-0.1l-0.2-0.1
		l-0.3-0.1H9.6l-0.3,0.1l-0.1-0.1H9.1v0H8.9c-0.1,0.1-0.2,0.3-0.4,0.4l-0.1,0.2l-0.1,0.1l0,0.3v0.4l-0.1,0.1v0.2l-0.1,0.1v0.3
		l-0.2,0.4v0.2v0.3L8,20l-0.2,0.1l0.1,0.1l-0.1,0.2l0.1,0.1l0.1,0.2l0.1,0H8l0.1-0.1h0.1l0.2-0.1v-0.1l0.2-0.1v-0.1l0.2-0.1l0,0
		l0.3-0.3l0.1-0.1l0.1-0.2h0.2l0.2-0.2l0,0l0.1-0.1L10,19l0.1-0.1l0.1-0.3l0.2-0.1l0.1-0.2v0v-0.2l0.2-0.1L11,17.4z"/>
	<path class="st3" d="M18,20c0,0.2-0.1,0.3-0.2,0.4c0,0.1-0.1,0.2-0.2,0.3h-0.1L17.3,21h-0.2l-0.2,0.2l-0.1,0.2h-0.1
		c-0.1,0-0.2,0.1-0.2,0.1l-0.1,0.1h-0.1c-0.1,0-0.3,0.1-0.3,0.2l-0.2-0.1h-0.2c-0.1,0-0.2,0-0.3-0.1H15l-0.1-0.1
		c-0.3,0-0.5-0.2-0.6-0.4l0,0l-0.2,0L14,20.9l-0.1-0.1v-0.2L13.7,20v-0.5l0.1-0.2V19l0.1-0.2v-0.1l0.1-0.2l0,0c0-0.1,0-0.2,0.1-0.2
		v-0.1v-0.3c0-0.2,0.1-0.3,0.2-0.4c0,0,0-0.1,0-0.1c0-0.1,0-0.1,0-0.2c0-0.1,0-0.2,0-0.2c0-0.1,0-0.2,0.1-0.3
		c0.1,0.1,0.2,0.2,0.3,0.2l0,0c0,0,0.1-0.1,0.1-0.1c0.1-0.2,0.2-0.4,0.3-0.6h0c0-0.1,0-0.2,0.1-0.3h0.1v-0.1h0.1
		c0,0,0.1-0.1,0.1-0.1c0.1-0.1,0.2-0.1,0.3-0.2c0-0.1,0.1-0.1,0.1-0.2l0.1,0l0-0.1c0.1-0.1,0.3-0.1,0.4-0.1c0.1,0,0.1,0,0.2,0h0.1
		l0.1,0.1c0.1,0.1,0.2,0.1,0.3,0.2l0.2,0.2v0.1c0.2,0.2,0.3,0.4,0.3,0.7v0.1v0.4l-0.1,0.1l-0.2,0.3l-0.2,0.3v0.2
		c-0.2,0.2-0.5,0.3-0.8,0.5c-0.1,0.1-0.2,0.2-0.4,0.2l0,0l-0.2,0.2h-0.2l-0.3,0.1l-0.2-0.1l0,0c0,0.1,0,0.2,0,0.3l-0.1,0.1v0.2
		l-0.1,0.2c0,0.2,0,0.4,0,0.4l0,0c0,0.1,0,0.2,0,0.3l0,0l0,0c0,0.1,0,0.1,0.1,0.2c0,0.1,0.1,0.2,0.1,0.2l0.1,0.1l0.3,0.1l0,0h0.1
		h0.4h0.3l0.1-0.1h0.1l0.1-0.2h0.1l0.3-0.1c0-0.1,0.1-0.1,0.2-0.1v-0.1c0.2,0,0.3-0.1,0.3-0.3c0.1-0.1,0.3-0.2,0.5-0.2h0
		C18,19.6,18,19.8,18,20z M16.7,16.2c0-0.1,0-0.1,0-0.2h-0.1c0,0,0,0-0.1,0l0,0l0,0l-0.1,0.1h-0.2h-0.1l-0.2,0.3l-0.1,0.1l-0.2,0.4
		L15.4,17c0,0.1-0.1,0.3-0.2,0.4v0.1c0.1-0.1,0.2-0.1,0.3-0.1h0.1v-0.1h0.2l0.1-0.2H16l0.1,0.1l0.1-0.2h0.1v-0.1h0.2l0,0v-0.1
		l0.2-0.2C16.7,16.4,16.7,16.3,16.7,16.2z"/>
	<path class="st3" d="M23.9,20l-0.2,0.2l-0.1,0.3l-0.1,0.1l-0.1,0.2h-0.3L23,21h-0.3l-0.2,0.1h-0.1h-0.2v0.1h-0.5h-0.2l-0.2,0.1
		l-0.1-0.1h0.2h-0.6l0,0h-0.1l-0.2,0.1l-0.3-0.1h-0.5c-0.1,0-0.1,0-0.2,0c-0.1,0-0.1,0-0.2,0l-0.3-0.1h-0.1h-0.1
		c-0.3,0-0.5-0.3-0.5-0.8v-0.2l0.2-0.2l0.3-0.1l0.2,0.1h0.2l0,0c0.1,0,0.2,0.1,0.2,0.2h0.1v0.2h0.2l0,0l1.7-0.1l0.4-0.1l0,0v-0.1
		h0.2l0,0c0.2,0,0.4-0.1,0.5-0.2v-0.1c0,0,0-0.1,0-0.1h0.1l-0.2-0.1h-0.1l-0.1-0.1v-0.1h-0.1l-0.1-0.1H22c-0.1,0-0.2,0-0.3-0.1h-0.1
		h-0.1l-0.2,0.1l-0.1-0.1l0,0L21,19.1l-0.4-0.2l-0.1-0.1L20,18.7l0-0.1l-0.4-0.2L19.3,18l-0.2-0.2l-0.1-0.7l0.1-0.1
		c0-0.2,0.1-0.4,0.2-0.5c0.1-0.1,0.2-0.2,0.2-0.3h0.2c0.1-0.1,0.1-0.2,0.2-0.2l0.2-0.2l0.8-0.3h0.1h0.3l0.4-0.1l0.8,0.1v0.1
		c0.1,0,0.2,0.1,0.3,0.2v0.1l0.2,0.1L23,16.3v0.1c-0.1,0.2-0.2,0.3-0.4,0.3c-0.2,0-0.3-0.1-0.4-0.2l0,0h-0.1l-0.2,0l-0.2-0.1
		l-0.1,0.1c-0.1,0-0.2,0-0.3,0.1c-0.1,0-0.3,0.1-0.4,0.2h-0.2l-0.1,0.1h-0.2l0,0h-0.1l-0.1,0.1l0,0l-0.1,0.2l-0.1,0.1
		c0,0.1-0.1,0.2-0.1,0.3c0,0.1,0,0.2,0,0.2c0,0.1,0.1,0.1,0.2,0.1v0.1l0.2,0.1c0.1,0,0.2,0.1,0.3,0.2H21l0.2,0.1h0.3l0.1,0.1
		l0.5,0.1l0.1,0.1l0-0.1c0.2,0,0.3,0.1,0.5,0.1h0.2v0.1h0.2l0.4,0.2c0.1,0.1,0.2,0.2,0.3,0.3l0.1,0.1v0.1c0.1,0.1,0.1,0.2,0.1,0.3
		L23.9,20z"/>
	<path class="st3" d="M27.9,19.1c0,0.2,0,0.3-0.1,0.4l-0.1,0l-0.1,0.2l-0.2,0.1c0,0.1-0.1,0.3-0.3,0.3h-0.1l-0.2,0.2h-0.2
		c-0.1,0.2-0.2,0.3-0.4,0.2l-0.1,0.2c-0.1,0.1-0.3,0.1-0.4,0.2h-0.1L25.7,21h-0.3l-0.2,0.2l-0.5-0.4l-0.2-0.5v-0.6l-0.1-0.2l0.2-1.2
		l0,0c0-0.1,0-0.3,0-0.4c0-0.2,0-0.3,0.1-0.5l0.1-0.3c0-0.1-0.1-0.1-0.1-0.2l0.1-0.2v-0.3l0,0c0-0.1-0.1-0.2-0.1-0.3c0,0,0,0,0-0.1
		c0,0,0,0,0-0.1c0-0.1,0-0.1,0-0.2c0-0.2,0.1-0.3,0.4-0.3h0.2c0.1,0,0.1-0.1,0.2-0.1c0.2,0,0.3,0.1,0.4,0.3l0,0c0,0.1,0,0.2,0,0.3
		c0,0.1,0,0.1,0,0.2l-0.1,0.7l0.1,0.2c0,0.2-0.1,0.3-0.2,0.4l0,0.2L25.5,18c0,0.2,0,0.3-0.1,0.5v0.3l-0.1,0.2v0.1v0.3v0.2l0.2,0.2
		h0.1l0,0h0.1l0.2-0.1l0.1-0.1l0-0.1h0.1v-0.1v0l0.1,0l0.1-0.1h0.1v-0.1l0,0v-0.1l0.1,0l0.2-0.1c0.2-0.1,0.4-0.2,0.6-0.2h0.1
		C27.7,18.9,27.8,19,27.9,19.1z M26.6,12.1c0,0.1-0.1,0.2-0.2,0.3l0,0c-0.1,0.2-0.3,0.3-0.4,0.3L25.8,13l-0.1,0.2l-0.3,0.1l-0.1,0.2
		L25,13.5l-0.3,0.3l-0.2-0.2v-0.3l0.1-0.2c0-0.1,0.1-0.3,0.2-0.3v0l0.1-0.1v-0.2l0.2-0.1v-0.1h0.2c0-0.2,0.1-0.3,0.2-0.4l0,0
		l0.1-0.1l0.1-0.3C26.3,11.6,26.6,11.8,26.6,12.1z"/>
	<path class="st3" d="M35,19.4l-0.1,0.5l0.1,0.2h-0.1c0.1,0.1,0.1,0.1,0.1,0.2c0,0.1,0,0.1,0,0.2l0,0c0,0.1,0,0.5-0.1,1.3V22l0,0v0
		v0v0.1l0,0v0.1l0,0v0.1v0.1c0,0.1,0,0.1-0.1,0.2l-0.1,0.2c0,0.1-0.1,0.2-0.1,0.3c-0.1,0.2-0.2,0.3-0.3,0.5L34,23.7l-0.2,0.2
		L33.6,24l-0.2,0.1h-0.1c-0.2,0.1-0.4,0.2-0.6,0.2h-0.1l-0.1,0l0,0c-0.1,0-0.3,0-0.4,0h-0.5l-0.3-0.1L31,24.3l-0.1-0.1h-0.4L30.3,24
		l-0.2-0.1c-0.3-0.1-0.6-0.4-0.6-0.7v0v-0.2c0.1-0.2,0.2-0.3,0.3-0.3c0.1,0,0.1-0.1,0.2-0.1c0.3,0,0.6,0.1,0.7,0.1v0.2l0.2,0.1v0.2
		l-0.1,0.1l0.6,0.2l0.3-0.1v0.1h0.1l0,0h0.2v0l0.1-0.1c0.2-0.1,0.4-0.1,0.6-0.1l0.1-0.1H33c0.1,0,0.1,0,0.2-0.1l0,0c0,0,0,0,0.1,0
		l0,0l0,0l0.4-0.4l0.2-0.3v-0.2l0.1-0.2v0L34,22l0.1-0.4l0.1-0.3V21c0-0.2,0-0.4,0.1-0.6l-0.1-0.2v-0.6l-0.1-0.2V19L34,18.7v-0.5
		h-0.1l-0.1,0.2l-0.2,0.2L33.4,19l-0.3,0.2l-0.4,0.4c-0.2,0.2-0.5,0.4-0.7,0.6l-0.1,0.2l-0.2,0.1l-0.2,0.1l-0.2,0.2l-0.2,0.1
		C31,20.9,30.9,21,30.8,21c-0.2,0.1-0.4,0.2-0.7,0.2h-0.5h-0.2l-0.3-0.3l-0.3-0.3l-0.1-0.3l-0.1-0.5l0-0.4l0.1-0.5v-0.1l0.1-0.4
		l0-0.2c0-0.1,0.1-0.3,0.1-0.4l0.3-0.5c0-0.1,0.1-0.2,0.2-0.2l0.1-0.2l0.2-0.2c0-0.1,0.1-0.2,0.2-0.3c0.1,0,0.1-0.1,0.1-0.2
		c0-0.1,0.2-0.2,0.5-0.3h-0.1h0.1l0.2-0.3h0.1l0.1-0.1c0.1-0.1,0.3-0.2,0.4-0.2h0.1l0.3-0.1l0.2,0.1h0.2l0.1,0.1
		c0.1,0,0.2,0.1,0.2,0.1l0.2,0.2l0,0v0.1l0.1,0.2v0.1v0.2v0.1l-0.2,0.3l-0.4,0l-0.2-0.3l-0.2-0.1L32,16.1h-0.1l-0.3,0.1v0.1h-0.3
		c-0.1,0.1-0.2,0.2-0.3,0.2c0,0-0.1,0.1-0.2,0.1l-0.1,0.2h-0.1V17h-0.2l-0.2,0.3l-0.1,0.1l0,0.2l-0.2,0.3v0.3l-0.2,0.2l-0.1,0.6
		l-0.1,0.1V19l-0.2,0.5v0.1v0.2c0.1,0.1,0.1,0.2,0.1,0.3h0.1v0.1c0.1,0,0.2,0,0.3,0c0.2-0.1,0.4-0.2,0.6-0.2c0-0.1,0.1-0.2,0.2-0.3
		c0.1-0.1,0.3-0.2,0.6-0.3l0,0c0-0.1,0-0.1,0.1-0.2l0.2-0.1c0.1,0,0.1-0.1,0.1-0.2l0.2,0l0.1-0.1l0.3-0.4l0.1,0.1
		c0.1-0.1,0.2-0.2,0.3-0.4l0.3-0.4v-0.2c0.2-0.3,0.3-0.5,0.4-0.8l-0.1-0.3l-0.1-0.2l0.1-0.2l-0.1-0.1v-0.2v-0.1l0.1-0.2
		c0.1-0.1,0.2-0.1,0.3-0.1c0.1,0,0.2,0.1,0.3,0.1l0.1,0.2l0.2,0.1v0.3c0,0.1,0.1,0.2,0.1,0.3c0,0.1,0.1,0.2,0.1,0.3v0.1v0.1l0.1,0.2
		v0.2l0.1,0.1c0,0.1,0,0.1,0,0.2c0,0,0,0.1,0,0.1h0.1l-0.1,0.3l0,0.2c0,0.1,0.1,0.2,0.1,0.2c0,0.1,0,0.2-0.1,0.3l0.1,0.1L35,19.4z"
		/>
	<path class="st3" d="M44,18.8c0,0.1-0.1,0.2-0.2,0.3l-0.1,0.2l0,0.3h-0.1v0.1c-0.1,0.1-0.3,0.2-0.3,0.3c-0.1,0.1-0.2,0.2-0.3,0.3
		l-0.1,0.1l-0.1,0.1h-0.1l-0.3,0.2l-0.4,0h-0.1h-0.2l-0.1-0.1c-0.1,0-0.2-0.1-0.3-0.2c-0.1,0-0.2-0.1-0.2-0.2
		c-0.1-0.1-0.2-0.3-0.2-0.4l0,0l-0.1-0.2l0,0l-0.1-0.2l-0.2-0.2v-0.3l-0.1-0.2l-0.2-1.1c0-0.1,0-0.3,0-0.4V17L40,16.9l-0.1,0.2
		l-0.5,0.5l-0.2,0.3l-0.1,0.2L39,18.3l-0.1,0.1v0.1l-0.2,0.4L38.6,19h-0.1l-0.2,0.1c0,0.2-0.1,0.3-0.3,0.3l0,0
		c0,0.1-0.1,0.3-0.3,0.4L37.6,20c-0.1,0.1-0.3,0.2-0.4,0.3c0,0.1-0.1,0.2-0.1,0.2L37,20.7c0,0.1-0.1,0.2-0.4,0.3h-0.1
		c-0.2,0-0.3-0.1-0.4-0.3l-0.2-0.3L36,20v-0.2l0,0v-0.2l-0.1-0.3l0.1-0.2l-0.1-0.1l0.1-0.2v-0.3l0,0l0.1-0.2v-0.1v-0.2v-0.4
		c0-0.1,0-0.1,0-0.2v-0.1v-0.1v-0.4v-0.8l0.2-0.4c0.2,0,0.4,0.1,0.5,0.2c0.1,0.1,0.2,0.2,0.1,0.4v0.1l0.1,0.1l0,0.3l0,0.5L37,17.6
		v0.3v0.2l-0.1,0.1l0.1,0.2l-0.1,0.1v0.1l0.1,0.1l-0.1,0.3v0.1v0.1l0.1,0.1l0.2-0.2c0-0.1,0-0.2,0.1-0.3c0-0.1,0-0.2,0.1-0.2l0,0
		l0.2-0.2v0v-0.1l0.2-0.2l0.1-0.1l0.1-0.1l0.5-0.6L38,18.1l0,0V18l0.2-0.2l0.1-0.2v-0.1l0.2-0.1v-0.2l0,0v-0.1v-0.1l0.2-0.2v-0.1
		c0,0,0,0,0,0c0-0.2,0.1-0.2,0.3-0.3c0.1-0.1,0.2-0.3,0.3-0.3l0.1-0.1l0,0c0.1-0.1,0.2-0.2,0.4-0.2l0.1-0.1h0.4l0.2,0.2l0.1,0.1l0,0
		h0.1v0.3l0.2,0.1l-0.1,0.3L41,17v0.4l0.1,0.5v0.5l0.1,0.3l0.1,0.3c0.1,0.1,0.1,0.1,0.1,0.2l0.2,0.1v0.3l0.1,0.1l0,0l0,0l0,0.1v-0.1
		h0.1c0.1,0,0.2-0.1,0.3-0.3h0.2v-0.1c0-0.1,0.1-0.1,0.2-0.2h0.1l0.1,0v0v0c0.1-0.1,0.1-0.2,0.2-0.3l0.1-0.1v-0.1l0.1-0.2l0.2-0.1
		l0.4,0.1l0.1,0.4v0.1L44,18.8z"/>
</g>
</svg>
