<svg id="Layer_1" data-name="Layer 1" xmlns="http://www.w3.org/2000/svg" viewBox="0 0 341.55 500"><defs><style>.cls-1{fill:#432417;}.cls-2{fill:#fff;}.cls-3{fill:#f1562e;}.cls-4{fill:#f0562e;}.cls-5{fill:#ee562e;}.cls-6{fill:#f5dfd7;}.cls-7{fill:#be5038;}.cls-8{fill:#b34b34;}.cls-9{fill:#302e2d;}.cls-10{fill:#fffaef;}.cls-11{fill:#f7c6c0;}.cls-12{fill:#faded6;}.cls-13{fill:#412218;}.cls-14{fill:#fac3be;}.cls-15{fill:#fcded5;}.cls-16{fill:#663f30;}.cls-17{fill:#4b2d1b;}.cls-18{fill:#fbf9e6;}.cls-19{fill:#644031;}.cls-20{fill:#faf8e6;}.cls-21{fill:#f49478;}.cls-22{fill:#e96654;}.cls-23{fill:#8e5a4e;}.cls-24{fill:#e76353;}.cls-25{fill:#d7695b;}.cls-26{fill:#3f3e3e;opacity:0.6;}</style></defs><path class="cls-1" d="M107.41,350.37c.19.13,8.89,11.26,9.06,11.44,3.32,8.8,9.41,13.72,18.3,15.87a7,7,0,0,1,3.37,2.94c1.09,2.9-1.13,4.6-2.45,6.64-2.26,3.13-5.28,5.56-7.86,8.4-3.06,2.34-3.43,5.85-4.08,9.22a35,35,0,0,1-1.48,5.71c-.42,1.11-.79,2.23-1.21,3.33a73.78,73.78,0,0,1-6.94,12.31c-2.58,3.29-4.64,7-8.1,9.56q-2.89,2.46-5.77,5c-3.8,2.16-7.67,4.18-11.54,6.19-4.54,2.08-9.45,2.92-14.25,4.14a18.52,18.52,0,0,1-3.32.27c-8.87,0-24.48-1.19-26.24-3-18.85-7.14-31.35-20.26-37.68-39.19-1.21-3.25-2.07-13.94-2.07-21a21,21,0,0,1,.4-4.94c1-5.64,2.2-11.2,5-16.28.35-.58.68-1.17,1-1.77a58.5,58.5,0,0,1,7.2-10.57c1.23-1.43,2.47-2.84,3.69-4.28,2.29-1.68,4.22-3.78,6.45-5.54a86.12,86.12,0,0,1,17.3-9.32,75.66,75.66,0,0,1,22.92-2.3h.05a50.66,50.66,0,0,1,7.76.86,68.6,68.6,0,0,1,21,8.57c1.31.82,3.27,2.35,4.76,3.53a38.19,38.19,0,0,1,3.3,3.06C106.47,349.59,107.41,350.37,107.41,350.37Z"/><path class="cls-2" d="M131.14,383c-3.68,3.92-7,7.49-10.32,11a9.17,9.17,0,0,0-2.51,5.34c-3.66,28.2-28.95,47.85-57.76,45.9C37.64,443.69,12,424.41,11.08,393c-.74-25,18.87-49.24,44.45-53.22,27.63-4.29,51.14,10.58,59.86,33.89a7.73,7.73,0,0,0,5,5.08C123.88,380,127.27,381.44,131.14,383Z"/><path class="cls-3" d="M49.23,417.86c-4.67-.26-10.88,2.07-13.56-.94-2.28-2.57-.67-8.57-.69-13.06,0-10,.07-20.05-.07-30.07,0-2.53.56-3.8,3.31-3.36a11,11,0,0,0,1.52,0c9.37,0,9.48,0,9.6,9,0,2.63.49,3.38,3.36,3,9.1-1.23,13.88,2.51,14.46,11.6.45,7,.09,14,.23,21,0,2.26-.88,2.9-3,2.81-3.71-.16-7.43-.17-11.14-.24-2.35-3.1-1-6.7-1.35-10.06-.26-2.43.48-4.93-.48-7.26-1.7,3.59-.41,7.33-.78,10.95C50.43,413.56,51,416,49.23,417.86Z"/><path class="cls-4" d="M77.64,382.89c4.37-.32,9.85-1.84,12.77.46,2.75,2.16.68,7.77.8,11.85.17,6.34-.08,12.68.1,19,.07,2.72-.56,4-3.59,3.74-3.35-.27-6.73-.17-10.1-.24A277.09,277.09,0,0,1,77.64,382.89Z"/><path class="cls-5" d="M83.63,380.76c-4.45-.06-7.07-2.54-7-6.63s3-6.55,7.36-6.52c4.75,0,7,2.13,7,6.57S88.66,380.83,83.63,380.76Z"/><path class="cls-6" d="M49.23,417.86c0-5.75,0-11.5.11-17.24,0-1.72-.68-4.45,2.87-3.62,1.08,6.92.63,13.85.22,20.78Z"/><path class="cls-7" d="M77.64,382.89q0,17.42,0,34.82c-1.18-.1-1.11-1-1.11-1.79q0-15.62,0-31.23C76.5,383.85,76.51,383,77.64,382.89Z"/><path class="cls-8" d="M52.43,417.78q-.12-10.39-.22-20.78c2.39,3.94.63,8.24,1,12.35.26,2.76,0,5.56,0,8.34l-.41.1Z"/><path class="cls-2" d="M343.54,193.81c-1,7.69-2.37,15.19,1,23,1.5,3.41.88,8.14-1.27,12.09a12.2,12.2,0,0,0-.4,10.82c2.72,6.19,2.44,12.25,1,18.54-1.16,4.93-.33,10-.39,14.94a2.11,2.11,0,0,1-1.88.06c-3.26-1.6-5.46.68-7.84,2.14a331.16,331.16,0,0,1-67.51,32.25c-10,3.39-20.31,4.33-30.65,5.53-4.75,0-9.5,0-14.24,0-28.39-1.35-50.81-14.1-69-35.11-18.86-21.76-27.45-47.47-29.77-75.51C118.16,149.09,140,108.83,185.82,80.8c16.91-10.36,34.6-18.95,54.27-23.07,34.76-7.3,67.2-3.12,96.21,18.56a4.69,4.69,0,0,0,3,1.43c1.89-1.15,1.06-3.09,1.07-4.68.08-11.21,0-22.43.09-33.64,0-2.76-.66-5.8,2-8,1.79,1.83,1.19,4.15,1.11,6.26-.62,16.6.21,33.19-.77,49.84-.54,9.14.48,18.6-.59,27.9-.43,3.76-1.49,43.54-.94,47,.79,5-.36-7.15-1-14.19a11.73,11.73,0,0,0-2.26-6.07c-1.13-1.46-1.49-3.38-2.2-5.08-5.2-12.55-17.3-18.92-31.4-16.5-12.19,2.08-22,13.59-22.82,26.67-.63,10.68,9,23.71,20,27,6.79,2,13.66-.11,20.5.14l19.2-11.92s0,9.42,1,14.14C343.9,184.73,341.92,188.55,343.54,193.81Z"/><path class="cls-9" d="M236.64,311.55c37.23-3.83,68.88-21.18,99.81-40.25,5.23-3.22,5.18-3.3,6,1.27,1.47,3.72-.51,5.74-3.59,7.35-15.51,8.11-30,18-46.31,24.75-23.85,9.9-48.36,16.83-74.54,14.55a97.18,97.18,0,0,1-59-26.3c-3.65-3.39-7.5-5.18-12.52-5.06-4.8.12-9.13-1.75-13.17-4.22-4.37-2.67-8-2.29-10.57,2.47-.74,1.36-1.66,3.09-3,3.42-8,1.93-9.32,9.11-12.53,14.87-1.05,1.88-1.65,3.66-.6,5.58a7.68,7.68,0,0,1-.18,8.11c-1.72,3,0,5,2.72,6.31A38.28,38.28,0,0,0,121.86,328a225.28,225.28,0,0,1,39.82,8.07c27.82,8.14,54.61,19,80.84,31C251,371,259.77,375.48,265.05,384a1.8,1.8,0,0,1-.64,1.82c-3.41,1.69-5.62-.3-8.16-2.23-7.77-5.88-15.16-12.52-25.45-14l-.48.05-.34-.33c-2.55-2.62-5.36-4.64-9.34-4l-41.43-16c-1.75-2.06-3.26-4.72-6.69-2.61-8.87-2.83-17.86-5.2-26.68-8.33-5.82-2.07-13-1-19.58-2-7.8-1.19-15.69-2.16-22.91-5.52-7.47-3.47-6.44-7.25-6.63-15-.2-8.48,2.69-14.78,6.25-21.53.28-.53-.06-1.37.2-1.93,1.07-2.39,2.12-5.64,4.67-6,9.42-1.32,11.43-16.09,23.61-12.34a19,19,0,0,1,6,3.51c2.64,2,5,1.86,8.87,1.84-15.74-19.07-23-40.72-27.53-63.51-.69-3.48-3.18-3.49-6-3.81C83.83,208.93,61.15,181,64.47,152.73c4.08-34.69,36.39-56.38,70.45-46.68,7,2,10.6,1,15.67-4.35,20.14-21.17,45.29-34.92,72.66-44.92a3.63,3.63,0,0,1,.65-.16c10-1.93,15.65-6.57,19.28-17.4,7.31-21.76,25.23-33.31,48-35,19.83-1.51,36.24,6.94,48.3,22.89,1.06,1.4,2,2.9,3,4.35V83.2C329.82,72.72,316.76,65.11,302,60.74c-26.32-7.79-52.3-5.85-77.8,3.47-30.54,11.17-58,27.16-77.47,53.67C120.49,153.55,118.3,193.12,130.44,234c9.43,31.8,28.75,56.2,59.85,70.15,9.53,4.28,19.62,7.42,30.36,7.35C226,312.06,231.31,313.15,236.64,311.55Z"/><path class="cls-9" d="M265,385.47c-5.81-7.91-14.3-13-22.72-16.76-31.67-14.22-63.91-27.2-97.82-35.47A143.54,143.54,0,0,0,122.87,330a50.19,50.19,0,0,1-16.49-4.67c-3.53-1.6-4.59-4.64-1.84-8.12.79-1,2.16-3,2-3.12-7.75-7.19,3-12.21,2.27-18.65-.29-2.65,2.47-4.68,5.38-5a8.37,8.37,0,0,0,7.42-5.74c2.27-6.12,6.65-6.33,11.11-3.38a31.05,31.05,0,0,0,18.18,5.08c7.32-.06,10.39,6.87,15.38,10.52,12.39,9.05,25.5,15.52,40.79,18.77a112.14,112.14,0,0,0,40.73.71A170.87,170.87,0,0,0,292.06,303c8.47-3.82,16.87-7.84,25-12.36,7.47-4.17,14.08-9.82,22.24-12.84,2.53-.92,3.06-2.93,3.14-5.25a6,6,0,0,0,1.09.59l0,14.22c-1.35,5.4-.6,10.89-.48,16.3.09,4.23-1.16,6.44-5.5,7.33-20,4.14-33.82,16.35-43.71,33.51-2.68,4.65-3.95,9.74-5.4,14.79A41.75,41.75,0,0,1,271,383.4C269.18,384.62,267.44,386.08,265,385.47Z"/><path class="cls-10" d="M265,385.47c12.23-7.19,19-17.52,23.25-31.29,7.25-23.63,24-39.1,48.8-44.73,4.83-1.09,5.82-2.67,5.6-7.12-.24-4.95-.66-10,.85-14.95-.22,11.17,1,22.34-1.05,33.5a25.58,25.58,0,0,0,.7,12.39c1.47,4.66,1,9.57,0,14.29-1.27,6.13-1.59,12,.94,18,1.71,4.1,1.34,8.61-.27,12.88-1.84,4.89-2.25,9.59.16,14.64a16.76,16.76,0,0,1,.32,13.51c-2.82,6.34-2.24,12.23-1,18.52S341.38,437.84,342,444c1.17,10.91-4.35,15.81-13.77,18.43-.35.1-.56.65-.84,1-2.86.26-3.63-2.08-4.84-3.84-16.5-24-33.13-48-54.53-68.18-1.63-1.54-4.12-3-3.1-6Z"/><path class="cls-9" d="M321.87,175.15c-18.59,4.59-32.9-1-39.36-15.42a29.64,29.64,0,0,1,16.6-39.67,30,30,0,0,1,39.21,18.52v0a28.53,28.53,0,0,1,1.27,9.8c-.07,1.94-.15,4.08-.2,5.68-.78,1-.27,2.38-1.13,3.34-5.79,3.93-10.33,8.85-12.6,15.57C325.05,174.85,323.3,174.72,321.87,175.15Z"/><path class="cls-9" d="M265,385.42c24.31,23.28,43.5,50.55,62.47,78,3,7.1,7.85,13.16,11.92,19.64,2.73,4.33,4.06,8.64,2.69,14.72-6.57-10.42-12.52-20.26-18.87-29.85-19.57-29.61-40.23-58.35-67-82.29-7.6-6.8-16.67-11.09-25.4-16,11.48-1.62,17.82,7.35,25.86,12.58C259.37,384,261.67,385.63,265,385.42Z"/><path class="cls-11" d="M337.92,156.81l1.48-2.7c6.27,2.95,3.93,8.51,4.12,13.3-1.42,4.51-.44,9.13-.61,13.7-.24,6.14-1.57,7.74-7.09,7.87-5.79.12-9.32-2.61-9.83-7.63-.31-3.16.95-6,1.67-9C329.85,166.37,334.33,161.89,337.92,156.81Z"/><path class="cls-12" d="M328.43,171.11c3,2,.24,3.8-.25,5.63-.87,3.26-1.59,6.54,1.41,9s6.76,1.69,10.12,1c2.64-.54,2.29-3.21,2.56-5.4.56-4.65-1.51-9.53,1.25-14q0,13.2,0,26.4c-1.53-1.78-3-2.21-5.62-1.49-13.34,3.73-18.34-1.22-15.4-14.9a2,2,0,0,0-.65-2.27l3-2.46C325.62,171.22,326.62,170.26,328.43,171.11Z"/><path class="cls-13" d="M220.64,365.38c4.8-2.55,7.87-1.13,9.34,4C226.39,369.12,223.63,367,220.64,365.38Z"/><path class="cls-13" d="M172.52,346.81c.24-1.92,1.33-2.69,3.18-2.1,2.28.72,3.85,2.05,3.51,4.71Z"/><path class="cls-9" d="M183.25,241.38c-13.46-4.58-22-17.93-19.92-31.27,2.15-14,13.68-24.91,27.17-25.7,15.3-.9,27.69,8,31.63,21.87,2.34,8.24.22,15.54-3,22.86a3.19,3.19,0,0,1-1.46,1.42c-8.38,2.06-16.51,4.69-23.88,9.29C190.52,241.87,187.12,243.32,183.25,241.38Z"/><path class="cls-9" d="M247.65,214.45a13.62,13.62,0,0,1-10.22-5c-1.37-1.64-3.45-3.48-1.21-5.66s3.85-.39,5.61,1.21c4.63,4.26,9.26,3.66,12.48-1.39,2.61-4.11,1.31-6.76-3.66-7.16-5.18-.42-9.16-3.14-10.82-7.59s2.69-7,5.59-9.5a18.47,18.47,0,0,1,5.08-3.1c2.93-1.23,6.05-3.94,9.17-1A12,12,0,0,1,263.5,186c-.33,2.34-2.87,4.72.62,6.9,2.74,1.71,5.09,1,7.46-.4,2.87-1.73,4.55-4.19,3.94-7.68a16.62,16.62,0,0,0-1.09-3.08c-.8-2-.19-3.47,1.8-4.24,1.82-.7,3,.44,3.79,1.82,2.42,4.28,3.42,9,.09,12.95-3,3.52-2,5.88.11,9.13,3.67,5.76,6.91,11.83,8.25,18.61.9,4.58,1.47,9.37-3,12.68s-8.86,1.26-13-1c-5.94-3.23-10.52-8.08-15-13C254.62,215.67,252.49,211.63,247.65,214.45Z"/><path class="cls-14" d="M188.42,244.15,186,242.94c2.46-1.67,5.32-1.71,8.12-2,7.38.73,13.1-2.9,18.66-7a3.61,3.61,0,0,1,2.76-.9c.86.21-.24,0,.64.17,16.58,2.77,14.39,12,5.55,20.7A61.15,61.15,0,0,1,191.6,270c-4.7,1.07-9,.46-11.89-3.73s-.79-8,1.64-11.56a41.07,41.07,0,0,1,8.26-8.55C192,244.22,188.2,245.21,188.42,244.15Z"/><path class="cls-15" d="M188.42,244.15h5.91c-4.7,4.17-9.4,7.66-12.5,12.57-1.62,2.59-3.25,5.35-1.2,8.52a7.91,7.91,0,0,0,8.62,3.69c13.64-2.8,25.59-8.77,34.5-19.64,6.16-7.52,4-12.53-5.66-13.69-1.51-.18-2.54-.09-2.79-1.77-.29-2.16,1-3.33,2.69-4.32a2.86,2.86,0,0,1,1.11-.37c1.46,2.52,4.06,1.09,6,1.42,8.21,1.41,12.39,7.84,8,14.58-11.46,17.43-27.66,27.78-49,29.16-4.21.28-9.13-.24-10.87-4.66s-1-9.24,2.33-13.56C179.18,251.31,183.16,247.11,188.42,244.15Z"/><path class="cls-16" d="M218,229.51l-2.69,4.32-1.64.86c-6,3-12.36,5.14-18.39,8l-9.28.22-2.74-1.56c4.44.33,7.86-2,11.5-4C202,233.27,209.43,229.76,218,229.51Z"/><path class="cls-17" d="M236.64,311.55c-5.33,3.8-10.66,1.28-16,0Z"/><path class="cls-18" d="M287.3,145.8a12.33,12.33,0,0,1,12.32-12.69c6.83-.05,12.82,5.68,12.9,12.36s-5.74,12.55-12.58,12.69A12.29,12.29,0,0,1,287.3,145.8Z"/><path class="cls-19" d="M328.43,171.11l-3.57,1.58c1.61-7.49,5.77-12.94,13.06-15.88C336.75,162.87,332.24,166.76,328.43,171.11Z"/><path class="cls-20" d="M208.68,203.66a12.37,12.37,0,0,1-12.4,12.61c-6.81,0-12.82-5.72-12.87-12.35s5.88-12.58,12.62-12.7A12.52,12.52,0,0,1,208.68,203.66Z"/><path class="cls-21" d="M283,220.81c.11,5.06-3.58,7.67-8.48,5.57-6.74-2.9-11.35-8.46-15.26-14.23-2.34-3.46,3.09-5.85,3.44-9.66.23-2.49,11.21-1.71,12.9.91C279.11,208.78,282,214.42,283,220.81Z"/><path class="cls-22" d="M189.82,255.6c2.73-1.28,4.35.28,6.12.9,1.39.48,2.37.87,3-1.05,2.12-6.81,3.84-7.09,10-1-4.42-1.15-8-1.77-7.46,4.11.19,2.12-1.84,2.73-3.88,1.68C195.07,259,192.16,258.38,189.82,255.6Z"/><path class="cls-23" d="M195.27,242.72c5-5.26,11.4-7.28,18.39-8A24.38,24.38,0,0,1,195.27,242.72Z"/><path class="cls-24" d="M208.56,245.69c2.82.56,4.74,1.5,6,3.87C210.82,249.55,210.82,249.55,208.56,245.69Z"/><path class="cls-9" d="M328.85,482a12.29,12.29,0,0,1-.72-1.2c-2.71-4.77-5.75-9.34-8.73-13.94-2-3.84-4.92-7.12-7.25-10.77q-1.47-2.31-3.06-4.54c-6.83-10.27-14.56-19.88-22-29.71a53.09,53.09,0,0,0-5.18-6.42c-2.74-3.14-5.5-6.27-8.17-9.47a56.91,56.91,0,0,0-6.13-6.39,91.36,91.36,0,0,0-7.76-7.86c-3-2.57-5.5-5.63-8.63-8.06-8.53-7.2-18.47-11.89-28.82-15.86-4.38-2-8.82-3.86-13.3-5.63-1.3-.62-2.69-1-4-1.53-4.75-2-9.53-3.89-14.38-5.63s-9.89-3.85-15-5.24A222,222,0,0,0,148,341.27c-5.26-1.16-10.36-3-15.78-3.46-5.4-.93-10.84-1.54-16.23-2.53-5.65-1.64-12-1.39-16.63-5.85-.14-2.23,1.46-2.62,3-2.26,6.36,1.48,12.91,1.36,19.26,3.9,4.88,2,10.88,2.15,16.31,2.36,7.68.31,14.36,3.53,21.5,5.3,13.29,3.29,26,8.54,38.76,13.29,5.52,2.05,11.22,3.8,16.35,7.19,4.5,3,10.14,4.57,15.24,6.18,8.94,2.8,15.41,8.7,22.64,13.75,1.24.87,2.32,1.94,3.54,2.85,3.06,2.27,3,2.29,6,.73,8,5.23,13.85,12.63,20,19.69,21.83,25.14,40.28,52.66,57.78,80.84a16.5,16.5,0,0,1,1.37,2.68c.9,3.58,1.76,7.15-.62,10.53l-1.05.07"/><path class="cls-25" d="M341.77,173.9a6.08,6.08,0,0,1-4.22-1.85c1-1.69,2.42-.79,3.55-1.06C342.16,171.77,342,172.82,341.77,173.9Z"/><path class="cls-2" d="M263.8,384.39l.86-1.06c4.86-4.1,10.23-7.6,13.94-13a39.56,39.56,0,0,0,6.1-14.18c5.11-23,27.95-44.64,51.36-48.86,2-.36,4-.82,6,.06,1.39.83,1.3,2.2,1.12,3.45a8,8,0,0,0,2.45,7,28.6,28.6,0,0,1-.08,13.76,14.15,14.15,0,0,0,0,16.1,27.37,27.37,0,0,1,.05,13.95c-3.37,4.43-3.41,11.77-.05,16.16a27.41,27.41,0,0,1,.05,14c-3.37,4.42-3.41,11.77-.05,16.15a27.45,27.45,0,0,1,.05,14c-3.37,4.42-3.41,11.77-.05,16.15a27.48,27.48,0,0,1,.05,14c-3.41,4.46-3.4,11.73,0,16.3.89,4.87,1.85,9.74-.79,14.42l0,0c-3.38-.68-2.59,2.65-3.9,4C325,461,308.36,435.86,289.07,412.54c-7.69-9.3-15.41-18.6-24.77-26.37C263.64,385.62,263.78,385,263.8,384.39Z"/><path class="cls-26" d="M340.58,307.89c-20.16,1.75-34.69,12.66-46.23,28.13a56.12,56.12,0,0,0-9.86,22.15c-2.33,10.78-9.28,18.68-18.56,24.58a7.47,7.47,0,0,1-2.39.5c-3.91.42-5.4-3.07-7.82-4.92-11.72-8.95-25.21-14.5-38.73-20-11-4.5-21.85-9.79-33.23-13.24-19.84-6-39.29-13.73-60.37-15.2a52.26,52.26,0,0,1-20.81-5.6c-4.42-2.32-4.74-4.47-.58-7.25,3.45-2.32,2.94-4.33.66-6.86-2.93-3.24-2.43-6,1.25-8.23,2.1-1.26,3-2.53,2.29-5.27-1-3.74,1.32-6.13,4.92-6.77,4.25-.75,6.74-3,8.54-6.83,2.7-5.78,4.09-6.1,9.72-3.22,4.86,2.49,9.35,5.46,15.24,5.68,3.17.12,5.27.23,6.07-3.23.21-.93.49-2.15,1.89-1.69a1.87,1.87,0,0,1,1,1.54c-1.43,6.58,4.08,9.26,7.76,12.39,5.1,4.35,9.94,9.63,17.46,10.16a4.15,4.15,0,0,1,3.56,2.47c.6,1.21,1.62,2.67,2.92,2.55,5.19-.5,8.8,3,13.17,4.46,4.82,1.62,10.19,1.89,15.31,2.59,13.26,1.81,26.46.73,39.54-2.28A206.12,206.12,0,0,0,300.78,297c.3-.15.76-.21.89-.45,4.28-7.85,14.18-4.93,20.08-10.42,5.14-4.79,11.84-8,18.72-10.32,2.88,3.31,1.24,7.28,1.63,10.95,0,5,.09,9.95,0,14.92C342,303.85,342.4,306.13,340.58,307.89Z"/></svg>