<svg id="Layer_1" data-name="Layer 1" xmlns="http://www.w3.org/2000/svg" viewBox="0 0 50 50"><defs><style>.cls-1{fill:#010101;}.cls-2{fill:#818080;}.cls-3{fill:#fff;}.cls-4{fill:#fefdfd;}.cls-5{fill:#010201;}</style></defs><path class="cls-1" d="M14.68,49.09a43.13,43.13,0,0,1-9-1,4.78,4.78,0,0,1-3-2.2,7.17,7.17,0,0,1-1.28-2.81c-.13-.9-.84-1.5-1-2.39-.23-1.49.23-2.2,1.71-2.27.63,0,.71-.22.73-.78.16-3.52,1.36-6.51,4.49-8.46a1,1,0,0,0,.38-.42,3.58,3.58,0,0,1,4.54-2.09c.27.06.45.23.77,0a4.63,4.63,0,0,1,6.18.14,1,1,0,0,0,1.39.17,27.18,27.18,0,0,0,5.56-3.7A10.71,10.71,0,0,1,31.69,21a15.78,15.78,0,0,1,7.23.27.74.74,0,0,0,.92-.26,2.93,2.93,0,0,1,4.09-.55c1.4.84,1.77,2.2,1.1,3.89a.86.86,0,0,0,.13,1,17.7,17.7,0,0,1,3.49,8,31.24,31.24,0,0,1,1,5.93,38.19,38.19,0,0,1-1.05,8.18c-.17.87-1.07.61-1.65.84-2,.21-4.09.57-6.16.58a2.43,2.43,0,0,1-1.86-.65,1.94,1.94,0,0,0-1.33-.43c-1.57-.16-3-.07-4.14,1.27-.26.31-.81.15-1.18.37a10.57,10.57,0,0,1-4.48,0,14.2,14.2,0,0,0-6.26-.89c-1.05,0-2.05.32-3.08.42C17.18,49.17,15.93,49,14.68,49.09Z"/><path class="cls-2" d="M32.26,49.5a6,6,0,0,0,2.57-2c.15-.25.32-.21.57-.13a4.34,4.34,0,0,0,1.32.29c1,0,1.91-.24,2.85.73.78.81,2.23.3,3.39.25a29.44,29.44,0,0,1,4-.28,17,17,0,0,1-4.19.66A91.78,91.78,0,0,1,32.26,49.5Z"/><path class="cls-2" d="M14.68,49.09a20.79,20.79,0,0,1,3.26-.28,41.52,41.52,0,0,1,5.47-.53,8.78,8.78,0,0,1,4.37,1.22A108.13,108.13,0,0,1,14.68,49.09Z"/><path class="cls-3" d="M47.69,32.65a6.11,6.11,0,0,0-7-.71,4.28,4.28,0,0,0-2.38,2.9,16.74,16.74,0,0,0,0,9.86c.13.39.12.58-.31.7-.86.24-1.71.51-2.58.78-.21-2.88-1.53-4.7-3.87-5.2a10.44,10.44,0,0,1-2.51-.66c-.37-.19-.5-.32-.41-.79a29.8,29.8,0,0,0,.48-8.43,11.76,11.76,0,0,0-2.38-6.46c-.6-.73-.26-1,.3-1.27a15.64,15.64,0,0,1,9.65-1.84c6.37.76,9.65,5.36,11,10.68A2.13,2.13,0,0,1,47.69,32.65Z"/><path class="cls-4" d="M20.14,29.46a11.56,11.56,0,0,1,1.34,5.64,61.27,61.27,0,0,1-1,12,.84.84,0,0,1-.82.77,39.93,39.93,0,0,1-9.14.34,18.62,18.62,0,0,1-5.11-1.07C3.47,46.42,2.62,44.8,2,43c-.13-.41.06-.54.42-.69a2.36,2.36,0,0,0,1.44-2.75,9.06,9.06,0,0,1,4.26-10,15.1,15.1,0,0,1,3.67-1.23c.3-.06.52-.11.58.36a3.48,3.48,0,0,0,3.39,3.31l.69,0C18.72,32.07,19.22,31.75,20.14,29.46Z"/><path class="cls-5" d="M9.65,44.08c-1.52-.24-3.36-.49-4.13-2.53A5.68,5.68,0,0,1,6.6,35.82a2.31,2.31,0,0,1,2.49-.72,6.72,6.72,0,0,1,4.46,5.16C13.73,42.55,12.25,44.13,9.65,44.08Z"/><path class="cls-3" d="M7,40.39a1.18,1.18,0,0,1,1.17-1.21,1.2,1.2,0,1,1,0,2.39A1.18,1.18,0,0,1,7,40.39Z"/></svg>