<svg id="Layer_1" data-name="Layer 1" xmlns="http://www.w3.org/2000/svg" viewBox="0 0 50 25"><defs><style>.cls-1{fill:#1b1b1b;}.cls-2{fill:#fefefd;}.cls-3{fill:#fdfdfd;}.cls-4{fill:#f7f6f6;}.cls-5{fill:#f8f7f7;}.cls-6{fill:#f9f8f8;}.cls-7{fill:#fbfafa;}.cls-8{fill:#f5f4f4;}.cls-9{fill:#efeeee;}</style></defs><path class="cls-1" d="M12.56,11.49A3.76,3.76,0,0,1,9.88,6.87a5.25,5.25,0,0,1,5.63-4.4,3,3,0,0,1,2.8,2.1c0,.1.07.2.1.3s.06.17.11.28A16.09,16.09,0,0,1,25,4a15.91,15.91,0,0,1,6.54,1.18c.1,0,.08-.11.1-.17a3.25,3.25,0,0,1,4-2.44A5,5,0,0,1,40.13,6.4a5,5,0,0,1-.31,3.42,2.51,2.51,0,0,1-2,1.59c-.25,0-.23.11-.15.31.22.6.43,1.21.62,1.82,0,.16.09.23.27.27a3.43,3.43,0,0,0,1.69.1,1.86,1.86,0,0,1,1.7.52,1.57,1.57,0,0,0,.81.38,2.15,2.15,0,0,1,1.76,1.66,7.08,7.08,0,0,1,0,3.33c-.06.38.05.38.34.38h4c.26,0,.61-.09.61.32s-.35.34-.6.34H16.1c-.33,0-.49,0-.55.42A1.62,1.62,0,0,1,14,22.69a.66.66,0,0,0-.46.23,2.29,2.29,0,0,1-2.61.64,1,1,0,0,0-.64,0A2.24,2.24,0,0,1,8.09,23a.66.66,0,0,0-.52-.17,1.84,1.84,0,0,1-2.06-1.63c-.07-.36-.22-.4-.53-.4-1.33,0-2.67,0-4,0-.25,0-.53,0-.53-.33s.26-.33.52-.33c1.35,0,2.7,0,4.05,0,.35,0,.45-.12.49-.43a6.42,6.42,0,0,1,.24-1.14A3.78,3.78,0,0,1,9.37,16a6.57,6.57,0,0,1,1.66.1c.2,0,.3,0,.33-.21A18.94,18.94,0,0,1,12.56,11.49Z"/><path class="cls-2" d="M25.17,20.18H16c-.26,0-.47,0-.53-.34a4.25,4.25,0,0,0-3.14-3.34c-.24-.09-.37-.18-.32-.47a15,15,0,0,1,3.24-7.61,10.46,10.46,0,0,1,6.39-3.51A18,18,0,0,1,30,5.28a10.94,10.94,0,0,1,7.21,7.19c0,.11.08.23.11.34a3.27,3.27,0,0,1,.28.94c0,.35-.47.3-.66.53a1.93,1.93,0,0,1-1.16.65c-.79.17-1.05.86-1.18,1.59a8.48,8.48,0,0,0,.21,3.25c.08.36,0,.42-.33.42C31.38,20.17,28.28,20.18,25.17,20.18Z"/><path class="cls-3" d="M39.6,20.18H37.94a.71.71,0,0,1-.65-1.11A2.74,2.74,0,0,1,40,17.78a2.7,2.7,0,0,1,1.83,1.1.86.86,0,0,1,.17.92.77.77,0,0,1-.84.38C40.65,20.16,40.12,20.18,39.6,20.18Z"/><path class="cls-4" d="M36.36,18a.61.61,0,0,1-.57-.63.64.64,0,0,1,.55-.65.63.63,0,0,1,.59.66A.6.6,0,0,1,36.36,18Z"/><path class="cls-5" d="M41.08,16.05a.61.61,0,0,1-.55.65.59.59,0,0,1-.59-.6.58.58,0,1,1,1.14-.05Z"/><path class="cls-6" d="M43,17.34a.6.6,0,0,1-.57.62.59.59,0,0,1-.55-.64.6.6,0,0,1,.6-.64A.62.62,0,0,1,43,17.34Z"/><path class="cls-7" d="M38.83,16c0,.46-.23.73-.55.73a.59.59,0,0,1-.56-.62c0-.37.26-.7.58-.66A.57.57,0,0,1,38.83,16Z"/><path class="cls-1" d="M33.47,15a5.63,5.63,0,0,1-.62,2.54,1.3,1.3,0,0,1-1.67.76,2.44,2.44,0,0,1-2-2.28,4.64,4.64,0,0,0-1.13-2.54,2,2,0,0,1-.34-1.78,1.19,1.19,0,0,1,1.11-.94A4.17,4.17,0,0,1,33.47,15Z"/><path class="cls-1" d="M21,10.72a1.25,1.25,0,0,1,1.33.73,1.86,1.86,0,0,1-.24,2,4.75,4.75,0,0,0-1.16,2.85c0,1.25-1.75,2.25-2.79,2a1,1,0,0,1-.69-.52c-1.06-1.93-1.34-4.63,1-6.34A4.09,4.09,0,0,1,21,10.72Z"/><path class="cls-1" d="M27.78,17.86c-.54.65-1.18,1.21-2,.86a1.7,1.7,0,0,0-1.38,0c-.87.31-1.49-.23-2.11-.89a11.16,11.16,0,0,0,1.21.39,1.21,1.21,0,0,0,1.43-1.39c0-.22-.19-.15-.3-.17a3.16,3.16,0,0,1-2-1.19c-.53-.72-.37-1.38.48-1.66a6.33,6.33,0,0,1,4.1,0c.82.27,1,.92.45,1.62a2.93,2.93,0,0,1-2.07,1.2c-.26,0-.29.13-.25.35.16,1.11.73,1.46,1.82,1.11Z"/><path class="cls-8" d="M29.85,12.91c-.17,0-.23-.11-.23-.26a.21.21,0,0,1,.23-.22c.16,0,.26.07.26.24S30,12.9,29.85,12.91Z"/><path class="cls-9" d="M21.1,12.65c0,.15-.09.25-.25.26a.23.23,0,0,1-.28-.22.23.23,0,0,1,.24-.26C21,12.41,21.05,12.51,21.1,12.65Z"/></svg>