<?xml version="1.0" encoding="utf-8"?>
<!-- Generator: Adobe Illustrator 24.1.0, SVG Export Plug-In . SVG Version: 6.00 Build 0)  -->
<svg version="1.1" id="Layer_1" xmlns="http://www.w3.org/2000/svg" xmlns:xlink="http://www.w3.org/1999/xlink" x="0px" y="0px"
	 viewBox="0 0 100 100" style="enable-background:new 0 0 100 100;" xml:space="preserve">
<style type="text/css">
	.st0{fill:#302E2D;}
	.st1{fill:#432417;}
	.st2{fill:#FFFFFF;}
	.st3{fill:#F0562E;}
	.st4{fill:#F0562D;}
	.st5{fill:#EE562E;}
	.st6{fill:#F4DFD7;}
	.st7{fill:#BE5038;}
	.st8{fill:#B24A34;}
	.st9{fill:#FFF9EE;}
	.st10{fill:#F7C5C0;}
	.st11{fill:#FADED6;}
	.st12{fill:#412219;}
	.st13{fill:#F9C2BD;}
	.st14{fill:#FCDDD5;}
	.st15{fill:#653F30;}
	.st16{fill:#4B2C1B;}
	.st17{fill:#FAF9E6;}
	.st18{fill:#644031;}
	.st19{fill:#FAF7E5;}
	.st20{fill:#F49479;}
	.st21{fill:#EA6654;}
	.st22{fill:#8D5A4E;}
	.st23{fill:#E76353;}
	.st24{fill:#D8695B;}
	.st25{opacity:0.6;fill:#3F3E3F;}
</style>
<path class="st0" d="M-171.1,42.1c-0.2,4.2-1.2,8.2-4.2,11.6c-1.9,2.4-4.9,3.6-7.9,3.4c-3.2-0.1-6.3-0.9-9.1-2.2
	c-2.3-1.2-4.4-2.9-6.2-4.9c-4.5-4.8-10.3-8.3-16.8-9.8c-3.6-1-7.2-1.5-10.7-2.7c-3.8-1.3-7-3.9-9.1-7.3c-2.5-4-2.1-8.2,0.2-12.1
	c3.5-6.4,10-10.6,17.3-11.1c4.3-0.4,8.3-1.3,12-3.8s7.9-2.8,12.1-1.6c6,1.7,11,5,14.1,10.6c1.3,2.4,1.5,5,1.8,7.6
	c0.2,2.8,1.1,5.4,2.4,7.9C-172.7,32.1-171.3,37.1-171.1,42.1z"/>
<path class="st0" d="M-177.9-24c0,4.4-1.9,8.1-4.2,11.7c-1.6,2.7-4,4.9-6.9,6.3c-1.1,0.5-2.2,0.7-3.4,0.8c-1.4,0.1-2.7-0.5-3.7-1.5
	c-1.9-2.1-3.2-4.6-3.7-7.4c-1.4-5.9-0.1-12.2,3.6-17c2.5-3.4,5.9-5.2,10.1-4.1c4.3,1,6.8,4.2,7.8,8.5C-178-25.9-177.9-24.9-177.9-24
	z"/>
<path class="st0" d="M-152.8-11.7c0,4.2-2,7.6-4.6,10.7c-3.2,3.9-7.8,6.4-12.9,6.9c-1.3,0.2-2.5,0.1-3.8-0.2
	c-1.4-0.4-2.5-1.3-3.1-2.6c-1.3-2.6-1.6-5.6-0.8-8.4c1-4.6,3.3-8.9,6.6-12.3c3.1-3,6.7-4.4,11.1-3.5
	C-155.8-20.2-152.6-16.2-152.8-11.7z"/>
<path class="st0" d="M-226.9-16.1c0-2.1,0.3-4.1,1.1-6c1.4-3.4,3.6-5.8,7.4-6.3c4.2-0.5,7.4,1.4,9.5,4.9c1.7,2.8,2.3,6.1,1.8,9.3
	c-0.3,3.6-1.4,7.1-3.3,10.2c-0.9,1.4-2.2,2.6-3.6,3.4c-2.4,1.3-4.7,0.9-7.1-1.4C-225.1-5.5-227.2-10.7-226.9-16.1z"/>
<path class="st0" d="M-160.6,28.6c-1.9,0.1-3.8-0.3-5.6-0.9c-2-0.7-3.3-2.5-3.3-4.5c-0.2-2.6,0.5-5.2,2-7.3
	c2.7-4.1,5.9-7.8,10.8-9.5c3.1-1.2,6.6-0.9,9.4,0.9c4.2,2.6,5.5,8,2.9,12.2c-0.2,0.3-0.4,0.6-0.7,0.9
	C-148.6,25.6-154.4,28.6-160.6,28.6z"/>
<g>
	<path class="st1" d="M54.1,70.2c0,0,1.8,2.2,1.8,2.3c0.7,1.7,1.9,2.7,3.6,3.1c0.3,0.1,0.5,0.3,0.7,0.6c0.2,0.6-0.2,0.9-0.5,1.3
		c-0.4,0.6-1,1.1-1.5,1.7c-0.6,0.5-0.7,1.2-0.8,1.8c-0.1,0.4-0.2,0.8-0.3,1.1c-0.1,0.2-0.2,0.4-0.2,0.7c-0.4,0.8-0.8,1.7-1.4,2.4
		c-0.5,0.6-0.9,1.4-1.6,1.9c-0.4,0.3-0.8,0.7-1.1,1c-0.7,0.4-1.5,0.8-2.3,1.2c-0.9,0.4-1.9,0.6-2.8,0.8c-0.2,0-0.4,0.1-0.7,0.1
		c-1.7,0-4.8-0.2-5.2-0.6c-3.7-1.4-6.2-4-7.4-7.7c-0.2-0.6-0.4-2.7-0.4-4.1c0-0.3,0-0.7,0.1-1c0.2-1.1,0.4-2.2,1-3.2
		c0.1-0.1,0.1-0.2,0.2-0.4c0.4-0.7,0.9-1.4,1.4-2.1c0.2-0.3,0.5-0.6,0.7-0.8c0.5-0.3,0.8-0.7,1.3-1.1c1.1-0.7,2.2-1.4,3.4-1.8
		c1.5-0.4,3-0.5,4.5-0.5c0,0,0,0,0,0c0.5,0,1.5,0.2,1.5,0.2c1.5,0.3,2.9,0.9,4.1,1.7c0.3,0.2,0.6,0.5,0.9,0.7
		c0.2,0.2,0.4,0.4,0.7,0.6C53.9,70,54.1,70.2,54.1,70.2z"/>
	<path class="st2" d="M58.8,76.6c-0.7,0.8-1.4,1.5-2,2.2c-0.3,0.3-0.4,0.6-0.5,1.1c-0.7,5.6-5.7,9.4-11.4,9
		c-4.5-0.3-9.6-4.1-9.8-10.3c-0.1-4.9,3.7-9.7,8.8-10.5c5.4-0.8,10.1,2.1,11.8,6.7c0.2,0.5,0.5,0.8,1,1C57.3,76,58,76.3,58.8,76.6z"
		/>
	<path class="st3" d="M42.6,83.5c-0.9-0.1-2.1,0.4-2.7-0.2c-0.5-0.5-0.1-1.7-0.1-2.6c0-2,0-4,0-5.9c0-0.5,0.1-0.7,0.7-0.7
		c0.1,0,0.2,0,0.3,0c1.8,0,1.9,0,1.9,1.8c0,0.5,0.1,0.7,0.7,0.6c1.8-0.2,2.7,0.5,2.9,2.3c0.1,1.4,0,2.8,0,4.1c0,0.4-0.2,0.6-0.6,0.6
		c-0.7,0-1.5,0-2.2,0c-0.5-0.6-0.2-1.3-0.3-2c-0.1-0.5,0.1-1-0.1-1.4c-0.3,0.7-0.1,1.4-0.2,2.2C42.9,82.6,43,83.1,42.6,83.5z"/>
	<path class="st4" d="M48.2,76.6c0.9-0.1,1.9-0.4,2.5,0.1c0.5,0.4,0.1,1.5,0.2,2.3c0,1.2,0,2.5,0,3.7c0,0.5-0.1,0.8-0.7,0.7
		c-0.7-0.1-1.3,0-2,0C48.1,81.1,48.1,78.9,48.2,76.6z"/>
	<path class="st5" d="M49.4,76.1c-0.9,0-1.4-0.5-1.4-1.3c0-0.8,0.6-1.3,1.5-1.3c0.9,0,1.4,0.4,1.4,1.3
		C50.9,75.7,50.4,76.2,49.4,76.1z"/>
	<path class="st6" d="M42.6,83.5c0-1.1,0-2.3,0-3.4c0-0.3-0.1-0.9,0.6-0.7c0.2,1.4,0.1,2.7,0,4.1C43,83.4,42.8,83.5,42.6,83.5z"/>
	<path class="st7" d="M48.2,76.6c0,2.3,0,4.6,0,6.9c-0.2,0-0.2-0.2-0.2-0.4c0-2.1,0-4.1,0-6.2C48,76.8,48,76.6,48.2,76.6z"/>
	<path class="st8" d="M43.3,83.4c0-1.4,0-2.7,0-4.1c0.5,0.8,0.1,1.6,0.2,2.4c0.1,0.5,0,1.1,0,1.6C43.4,83.4,43.3,83.4,43.3,83.4
		L43.3,83.4z"/>
	<g>
		<g>
			<path class="st2" d="M100.6,39.3c-0.2,1.5-0.5,3,0.2,4.5c0.3,0.7,0.2,1.6-0.3,2.4c-0.4,0.7-0.4,1.5-0.1,2.1
				c0.5,1.2,0.5,2.4,0.2,3.7c-0.2,1-0.1,2-0.1,2.9c-0.1,0.1-0.2,0.1-0.4,0c-0.6-0.3-1.1,0.1-1.5,0.4c-4.2,2.6-8.6,4.8-13.3,6.4
				c-2,0.7-4,0.9-6,1.1c-0.9,0-1.9,0-2.8,0C71,62.6,66.5,60,63,55.9c-3.7-4.3-5.4-9.4-5.9-14.9c-0.9-10.5,3.4-18.5,12.5-24
				c3.3-2,6.8-3.7,10.7-4.5c6.9-1.4,13.2-0.6,19,3.7c0.2,0.1,0.3,0.3,0.6,0.3c0.4-0.2,0.2-0.6,0.2-0.9c0-2.2,0-4.4,0-6.6
				c0-0.5-0.1-1.1,0.4-1.6c0.4,0.4,0.2,0.8,0.2,1.2c-0.1,3.3,0,6.5-0.2,9.8c-0.1,1.8,0.1,3.7-0.1,5.5c-0.1,0.7-0.3,8.6-0.2,9.3
				c0.2,1-0.1-1.4-0.2-2.8c0-0.4-0.2-0.9-0.4-1.2c-0.2-0.3-0.3-0.7-0.4-1c-1-2.5-3.4-3.7-6.2-3.3c-2.4,0.4-4.3,2.7-4.5,5.3
				c-0.1,2.1,1.8,4.7,3.9,5.3c1.3,0.4,2.7,0,4,0l3.8-2.4c0,0,0,1.9,0.2,2.8C100.7,37.5,100.3,38.3,100.6,39.3z"/>
			<path class="st0" d="M79.6,62.5c7.3-0.8,13.6-4.2,19.7-7.9c1-0.6,1-0.7,1.2,0.3c0.3,0.7-0.1,1.1-0.7,1.4
				c-3.1,1.6-5.9,3.5-9.1,4.9c-4.7,2-9.5,3.3-14.7,2.9c-4.5-0.4-8.4-2.1-11.6-5.2c-0.7-0.7-1.5-1-2.5-1c-0.9,0-1.8-0.3-2.6-0.8
				c-0.9-0.5-1.6-0.5-2.1,0.5c-0.1,0.3-0.3,0.6-0.6,0.7c-1.6,0.4-1.8,1.8-2.5,2.9c-0.2,0.4-0.3,0.7-0.1,1.1c0.3,0.5,0.3,1.1,0,1.6
				c-0.3,0.6,0,1,0.5,1.2c0.8,0.4,1.6,0.6,2.5,0.7c2.7,0.3,5.3,0.8,7.9,1.6c5.5,1.6,10.8,3.7,15.9,6.1c1.7,0.8,3.4,1.6,4.4,3.3
				c0,0.1,0,0.3-0.1,0.4c-0.7,0.3-1.1-0.1-1.6-0.4c-1.5-1.2-3-2.5-5-2.8l-0.1,0l-0.1-0.1c-0.5-0.5-1.1-0.9-1.8-0.8
				c-2.7-1-5.4-2.1-8.2-3.1c-0.3-0.4-0.6-0.9-1.3-0.5c-1.7-0.6-3.5-1-5.3-1.6c-1.1-0.4-2.6-0.2-3.9-0.4c-1.5-0.2-3.1-0.4-4.5-1.1
				c-1.5-0.7-1.3-1.4-1.3-3c0-1.7,0.5-2.9,1.2-4.2c0.1-0.1,0-0.3,0-0.4c0.2-0.5,0.4-1.1,0.9-1.2c1.9-0.3,2.3-3.2,4.7-2.4
				c0.5,0.1,0.9,0.4,1.2,0.7c0.5,0.4,1,0.4,1.8,0.4c-3.1-3.8-4.5-8-5.4-12.5c-0.1-0.7-0.6-0.7-1.2-0.8c-5.7-0.6-10.2-6.2-9.5-11.7
				c0.8-6.8,7.2-11.1,13.9-9.2c1.4,0.4,2.1,0.2,3.1-0.9c4-4.2,8.9-6.9,14.3-8.9c0,0,0.1,0,0.1,0c2-0.4,3.1-1.3,3.8-3.4
				c1.4-4.3,5-6.6,9.5-6.9c3.9-0.3,7.1,1.4,9.5,4.5c0.2,0.3,0.4,0.6,0.6,0.9c0,3.3,0,6.7,0,10.2c-2.5-2.1-5.1-3.6-8-4.4
				c-5.2-1.5-10.3-1.2-15.3,0.7c-6,2.2-11.4,5.4-15.3,10.6c-5.2,7-5.6,14.8-3.2,22.9c1.9,6.3,5.7,11.1,11.8,13.8
				c1.9,0.8,3.9,1.5,6,1.4C77.5,62.6,78.5,62.8,79.6,62.5z"/>
			<path class="st0" d="M85.1,77.1c-1.1-1.6-2.8-2.6-4.5-3.3c-6.2-2.8-12.6-5.4-19.3-7c-1.4-0.3-2.8-0.5-4.2-0.6
				c-1.2-0.1-2.2-0.5-3.3-0.9c-0.7-0.3-0.9-0.9-0.4-1.6c0.2-0.2,0.4-0.6,0.4-0.6c-1.5-1.4,0.6-2.4,0.4-3.7c-0.1-0.5,0.5-0.9,1.1-1
				c0.7-0.1,1.2-0.5,1.5-1.1c0.4-1.2,1.3-1.2,2.2-0.7c1.1,0.7,2.3,1,3.6,1c1.4,0,2,1.4,3,2.1c2.4,1.8,5,3.1,8,3.7
				c2.7,0.6,5.4,0.5,8,0.1c3-0.5,5.9-1.4,8.7-2.6c1.7-0.8,3.3-1.5,4.9-2.4c1.5-0.8,2.8-1.9,4.4-2.5c0.5-0.2,0.6-0.6,0.6-1
				c0.1,0,0.1,0.1,0.2,0.1c0,0.9,0,1.9,0,2.8c-0.3,1.1-0.1,2.1-0.1,3.2c0,0.8-0.2,1.3-1.1,1.4c-4,0.8-6.7,3.2-8.6,6.6
				c-0.5,0.9-0.8,1.9-1.1,2.9c-0.6,2-1.7,3.6-3.4,4.7C86,76.9,85.6,77.2,85.1,77.1z"/>
			<path class="st9" d="M85.1,77.1c2.4-1.4,3.8-3.5,4.6-6.2c1.4-4.7,4.7-7.7,9.6-8.8c1-0.2,1.1-0.5,1.1-1.4c0-1-0.1-2,0.2-2.9
				c0,2.2,0.2,4.4-0.2,6.6c-0.1,0.8-0.1,1.6,0.1,2.4c0.3,0.9,0.2,1.9,0,2.8c-0.3,1.2-0.3,2.4,0.2,3.6c0.3,0.8,0.3,1.7-0.1,2.5
				c-0.4,1-0.4,1.9,0,2.9c0.4,0.8,0.4,1.9,0.1,2.7c-0.6,1.2-0.4,2.4-0.2,3.7c0.3,1.3-0.4,2.5-0.3,3.7c0.2,2.1-0.9,3.1-2.7,3.6
				c-0.1,0-0.1,0.1-0.2,0.2c-0.6,0.1-0.7-0.4-1-0.8c-3.3-4.7-6.5-9.5-10.7-13.4C85.4,77.9,84.9,77.7,85.1,77.1L85.1,77.1z"/>
			<path class="st0" d="M96.4,35.6c-3.7,0.9-6.5-0.2-7.8-3c-1.4-3,0.1-6.6,3.3-7.8c3.2-1.2,6.7,0.5,7.7,3.7c0,0,0,0,0,0
				c0.2,0.6,0.3,1.3,0.3,1.9c0,0.4,0,0.8,0,1.1c-0.2,0.2-0.1,0.5-0.2,0.7c-1.1,0.8-2,1.7-2.5,3.1C97,35.6,96.6,35.5,96.4,35.6z"/>
			<path class="st0" d="M85.1,77.1c4.8,4.6,8.6,10,12.3,15.4c0.6,1.4,1.5,2.6,2.4,3.9c0.5,0.9,0.8,1.7,0.5,2.9
				c-1.3-2.1-2.5-4-3.7-5.9c-3.9-5.8-7.9-11.5-13.2-16.2c-1.5-1.3-3.3-2.2-5-3.2c2.3-0.3,3.5,1.4,5.1,2.5
				C84,76.8,84.5,77.1,85.1,77.1z"/>
			<path class="st10" d="M99.5,32c0.1-0.2,0.2-0.4,0.3-0.5c1.2,0.6,0.8,1.7,0.8,2.6c-0.3,0.9-0.1,1.8-0.1,2.7c0,1.2-0.3,1.5-1.4,1.6
				c-1.1,0-1.8-0.5-1.9-1.5c-0.1-0.6,0.2-1.2,0.3-1.8C97.9,33.9,98.8,33,99.5,32z"/>
			<path class="st11" d="M97.7,34.8c0.6,0.4,0,0.7-0.1,1.1c-0.2,0.6-0.3,1.3,0.3,1.8c0.6,0.5,1.3,0.3,2,0.2c0.5-0.1,0.5-0.6,0.5-1.1
				c0.1-0.9-0.3-1.9,0.2-2.8c0,1.7,0,3.5,0,5.2c-0.3-0.4-0.6-0.4-1.1-0.3c-2.6,0.7-3.6-0.2-3-2.9c0-0.2,0-0.3-0.1-0.4
				c0.2-0.2,0.4-0.3,0.6-0.5C97.1,34.8,97.3,34.7,97.7,34.8z"/>
			<path class="st12" d="M76.4,73.1c0.9-0.5,1.6-0.2,1.8,0.8C77.5,73.9,77,73.4,76.4,73.1z"/>
			<path class="st12" d="M66.9,69.5c0-0.4,0.3-0.5,0.6-0.4c0.4,0.1,0.8,0.4,0.7,0.9C67.8,69.8,67.4,69.6,66.9,69.5z"/>
			<path class="st0" d="M69,48.7c-2.7-0.9-4.3-3.5-3.9-6.2c0.4-2.8,2.7-4.9,5.4-5.1c3-0.2,5.5,1.6,6.2,4.3c0.5,1.6,0,3.1-0.6,4.5
				c-0.1,0.1-0.2,0.2-0.3,0.3c-1.7,0.4-3.3,0.9-4.7,1.8C70.5,48.8,69.8,49.1,69,48.7z"/>
			<path class="st0" d="M81.7,43.4c-0.9-0.1-1.5-0.4-2-1c-0.3-0.3-0.7-0.7-0.2-1.1c0.4-0.4,0.8-0.1,1.1,0.2c0.9,0.8,1.8,0.7,2.5-0.3
				c0.5-0.8,0.3-1.3-0.7-1.4c-1-0.1-1.8-0.6-2.1-1.5c-0.3-0.9,0.5-1.4,1.1-1.9c0.3-0.3,0.6-0.5,1-0.6c0.6-0.2,1.2-0.8,1.8-0.2
				c0.6,0.6,0.9,1.3,0.8,2.1c-0.1,0.5-0.6,0.9,0.1,1.4c0.5,0.3,1,0.2,1.5-0.1c0.6-0.3,0.9-0.8,0.8-1.5c0-0.2-0.1-0.4-0.2-0.6
				c-0.2-0.4,0-0.7,0.4-0.8c0.4-0.1,0.6,0.1,0.7,0.4c0.5,0.8,0.7,1.8,0,2.6c-0.6,0.7-0.4,1.2,0,1.8c0.7,1.1,1.4,2.3,1.6,3.7
				c0.2,0.9,0.3,1.8-0.6,2.5c-0.9,0.7-1.7,0.2-2.6-0.2c-1.2-0.6-2.1-1.6-3-2.6C83.1,43.6,82.7,42.8,81.7,43.4z"/>
			<path class="st13" d="M70.1,49.2c-0.2-0.1-0.3-0.2-0.5-0.2c0.5-0.3,1-0.3,1.6-0.4c1.5,0.1,2.6-0.6,3.7-1.4
				c0.2-0.1,0.3-0.2,0.5-0.2c0.2,0,0,0,0.1,0c3.3,0.5,2.8,2.4,1.1,4.1c-1.7,1.6-3.7,2.7-5.9,3.2c-0.9,0.2-1.8,0.1-2.3-0.7
				c-0.6-0.8-0.2-1.6,0.3-2.3c0.4-0.7,1-1.2,1.6-1.7C70.8,49.2,70,49.4,70.1,49.2z"/>
			<path class="st14" d="M70.1,49.2c0.3,0,0.7,0,1.2,0c-0.9,0.8-1.9,1.5-2.5,2.5c-0.3,0.5-0.6,1.1-0.2,1.7c0.4,0.6,1,0.9,1.7,0.7
				c2.7-0.6,5-1.7,6.8-3.9c1.2-1.5,0.8-2.5-1.1-2.7c-0.3,0-0.5,0-0.6-0.3c-0.1-0.4,0.2-0.7,0.5-0.9c0.1,0,0.1-0.1,0.2-0.1
				c0.3,0.5,0.8,0.2,1.2,0.3c1.6,0.3,2.4,1.5,1.6,2.9c-2.3,3.4-5.5,5.5-9.7,5.7c-0.8,0.1-1.8,0-2.1-0.9c-0.4-0.9-0.2-1.8,0.5-2.7
				C68.2,50.6,69,49.8,70.1,49.2z"/>
			<path class="st15" d="M75.9,46.3c-0.2,0.3-0.4,0.6-0.5,0.9c-0.1,0.1-0.2,0.1-0.3,0.2c-1.2,0.6-2.4,1-3.6,1.6c-0.6,0-1.2,0-1.8,0
				c-0.2-0.1-0.4-0.2-0.5-0.3c0.9,0.1,1.6-0.4,2.3-0.8C72.7,47.1,74.2,46.4,75.9,46.3z"/>
			<path class="st16" d="M79.6,62.5c-1.1,0.7-2.1,0.3-3.2,0C77.5,62.5,78.5,62.5,79.6,62.5z"/>
			<path class="st17" d="M89.6,29.8c0-1.4,1-2.5,2.4-2.5c1.3,0,2.5,1.1,2.5,2.4c0,1.3-1.1,2.5-2.5,2.5
				C90.7,32.3,89.6,31.2,89.6,29.8z"/>
			<path class="st18" d="M97.7,34.8c-0.2,0.1-0.5,0.2-0.7,0.3c0.3-1.5,1.1-2.6,2.6-3.1C99.3,33.2,98.4,34,97.7,34.8z"/>
			<path class="st19" d="M74.1,41.2c0,1.4-1.1,2.5-2.4,2.5c-1.3,0-2.5-1.1-2.5-2.4c0-1.3,1.2-2.5,2.5-2.5
				C72.9,38.8,74,39.9,74.1,41.2z"/>
			<path class="st20" d="M88.7,44.6c0,1-0.7,1.5-1.7,1.1c-1.3-0.6-2.2-1.7-3-2.8c-0.5-0.7,0.6-1.2,0.7-1.9c0-0.5,2.2-0.3,2.5,0.2
				C87.9,42.2,88.5,43.4,88.7,44.6z"/>
			<path class="st21" d="M70.3,51.5c0.5-0.3,0.9,0.1,1.2,0.2c0.3,0.1,0.5,0.2,0.6-0.2c0.4-1.3,0.8-1.4,2-0.2
				c-0.9-0.2-1.6-0.3-1.5,0.8c0,0.4-0.4,0.5-0.8,0.3C71.4,52.1,70.8,52,70.3,51.5z"/>
			<path class="st22" d="M71.4,48.9c1-1,2.2-1.4,3.6-1.6C74.1,48.4,72.9,48.9,71.4,48.9z"/>
			<path class="st23" d="M74,49.5c0.6,0.1,0.9,0.3,1.2,0.8C74.5,50.3,74.5,50.3,74,49.5z"/>
		</g>
	</g>
	<path class="st0" d="M97.7,96.1c-0.1-0.1-0.1-0.2-0.1-0.2c-0.5-0.9-1.1-1.8-1.7-2.7c-0.4-0.8-1-1.4-1.4-2.1
		c-0.2-0.3-0.4-0.6-0.6-0.9c-1.3-2-2.9-3.9-4.3-5.9c-0.3-0.5-0.7-0.9-1-1.3c-0.5-0.6-1.1-1.2-1.6-1.9c-0.4-0.5-0.8-0.9-1.2-1.3
		c-0.5-0.5-1-1.1-1.5-1.5c-0.6-0.5-1.1-1.1-1.7-1.6c-1.7-1.4-3.6-2.3-5.7-3.1c-0.9-0.4-1.7-0.8-2.6-1.1c-0.3-0.1-0.5-0.2-0.8-0.3
		c-0.9-0.4-1.9-0.8-2.8-1.1c-1-0.4-2-0.8-3-1c-1.8-0.7-3.6-1.2-5.5-1.7c-1-0.2-2-0.6-3.1-0.7c-1.1-0.2-2.1-0.3-3.2-0.5
		c-1.1-0.3-2.4-0.3-3.3-1.2c0-0.4,0.3-0.5,0.6-0.4c1.3,0.3,2.5,0.3,3.8,0.8c1,0.4,2.1,0.4,3.2,0.5c1.5,0.1,2.8,0.7,4.2,1
		c2.6,0.6,5.1,1.7,7.6,2.6c1.1,0.4,2.2,0.7,3.2,1.4c0.9,0.6,2,0.9,3,1.2c1.8,0.6,3,1.7,4.5,2.7c0.2,0.2,0.5,0.4,0.7,0.6
		c0.6,0.4,0.6,0.5,1.2,0.1c1.6,1,2.7,2.5,3.9,3.9c4.3,5,7.9,10.4,11.4,15.9c0.1,0.2,0.2,0.3,0.3,0.5c0.2,0.7,0.3,1.4-0.1,2.1
		c-0.1,0-0.1,0-0.2,0"/>
	<path class="st24" d="M100.3,35.4c-0.3,0-0.6-0.1-0.8-0.4c0.2-0.3,0.5-0.2,0.7-0.2C100.4,34.9,100.3,35.2,100.3,35.4z"/>
	<path class="st2" d="M84.9,76.9c0.1-0.1,0.1-0.1,0.2-0.2c1-0.8,2-1.5,2.7-2.6c0.6-0.9,1-1.8,1.2-2.8c1-4.5,5.5-8.8,10.1-9.6
		c0.4-0.1,0.8-0.2,1.2,0c0.3,0.2,0.3,0.4,0.2,0.7c-0.1,0.5,0.1,1,0.5,1.4c0.2,0.9,0.2,1.8,0,2.7c-0.7,0.9-0.7,2.3,0,3.2
		c0.2,0.9,0.2,1.8,0,2.8c-0.7,0.9-0.7,2.3,0,3.2c0.2,0.9,0.2,1.8,0,2.8c-0.7,0.9-0.7,2.3,0,3.2c0.2,0.9,0.2,1.8,0,2.8
		c-0.7,0.9-0.7,2.3,0,3.2c0.2,0.9,0.2,1.8,0,2.8c-0.7,0.9-0.7,2.3,0,3.2c0.2,1,0.4,1.9-0.2,2.8c0,0,0,0,0,0
		c-0.7-0.1-0.5,0.5-0.8,0.8C97,92,93.7,87,89.9,82.4c-1.5-1.8-3-3.7-4.9-5.2C84.9,77.1,84.9,77,84.9,76.9z"/>
	<path class="st25" d="M100.1,61.8c-4,0.3-6.8,2.5-9.1,5.5c-1,1.3-1.6,2.8-1.9,4.4c-0.5,2.1-1.8,3.7-3.7,4.8
		c-0.1,0.1-0.3,0.1-0.5,0.1c-0.8,0.1-1.1-0.6-1.5-1c-2.3-1.8-5-2.9-7.6-3.9c-2.2-0.9-4.3-1.9-6.6-2.6c-3.9-1.2-7.7-2.7-11.9-3
		c-1.4-0.1-2.8-0.4-4.1-1.1c-0.9-0.5-0.9-0.9-0.1-1.4c0.7-0.5,0.6-0.9,0.1-1.4c-0.6-0.6-0.5-1.2,0.2-1.6c0.4-0.2,0.6-0.5,0.5-1
		c-0.2-0.7,0.3-1.2,1-1.3c0.8-0.1,1.3-0.6,1.7-1.3c0.5-1.1,0.8-1.2,1.9-0.6c1,0.5,1.8,1.1,3,1.1c0.6,0,1,0,1.2-0.6
		c0-0.2,0.1-0.4,0.4-0.3c0.1,0,0.2,0.2,0.2,0.3c-0.3,1.3,0.8,1.8,1.5,2.4c1,0.9,2,1.9,3.4,2c0.3,0,0.6,0.2,0.7,0.5
		c0.1,0.2,0.3,0.5,0.6,0.5c1-0.1,1.7,0.6,2.6,0.9c1,0.3,2,0.4,3,0.5c2.6,0.4,5.2,0.1,7.8-0.4c3.3-0.8,6.4-1.9,9.4-3.5
		c0.1,0,0.2,0,0.2-0.1c0.8-1.5,2.8-1,4-2.1c1-0.9,2.3-1.6,3.7-2c0.6,0.7,0.2,1.4,0.3,2.2c0,1,0,2,0,2.9
		C100.3,61,100.4,61.4,100.1,61.8z"/>
</g>
</svg>
