<svg id="Layer_1" data-name="Layer 1" xmlns="http://www.w3.org/2000/svg" viewBox="0 0 500 500"><defs><style>.cls-1{fill:#302e2d;}</style></defs><path class="cls-1" d="M347.59,405.33c-.79,21.27-6.1,41.48-20.87,58.23-10.56,12-23.91,18.07-40,17.19s-31.56-4-46.12-11c-12.17-5.9-22-14.87-31-24.73-23-25.41-51.72-40.64-84.36-49.53-17.89-4.87-36.3-7.61-53.89-13.69-19.7-6.82-35.06-19.46-46-36.75-12.74-20.1-10.37-41.17.89-61,19.1-33.6,48.92-52.41,86.94-56.15,21.82-2.15,42-6.57,60.32-18.95,18.92-12.8,39.7-14,61-7.89,30.4,8.73,55.33,25,70.76,53.58,6.46,11.94,7.49,25.33,9.15,38.44,1.76,14,4.8,27.2,12.12,39.66C339.62,354.87,347,378.92,347.59,405.33Z"/><path class="cls-1" d="M313.62,72.41c-.23,22.15-9.69,41-21.41,58.94-8.82,13.49-19.45,25.2-34.63,31.87a47.83,47.83,0,0,1-16.94,3.83c-7.45.39-13.4-2.48-18.51-7.6C211.75,149,206.44,136,203.33,122c-7-31.3-.74-60.2,18.21-85.83,12.58-17,29.8-25.78,51.36-20.67,22.31,5.28,34.36,21,39.45,42.66A55.61,55.61,0,0,1,313.62,72.41Z"/><path class="cls-1" d="M440.22,134.28c-.24,21.21-10.26,38.28-23.31,53.89C400,208.39,378,219.51,352.11,223a50.27,50.27,0,0,1-19-1.13c-7.39-1.85-12.31-6.58-15.81-13.14-7.26-13.59-7.45-27.87-3.84-42.34C319.29,143,329,121.54,346.66,104.6c15.51-14.91,33.9-22.26,55.72-17.53C425.82,92.15,440.17,110.25,440.22,134.28Z"/><path class="cls-1" d="M66.61,112.1A77.78,77.78,0,0,1,72,81.78c6.8-17.2,18.33-29.38,37.28-31.52,21.12-2.39,37.08,7.07,48.05,24.86,8.92,14.46,10.75,30.42,8.82,47.05-2.12,18.28-6.31,35.88-16.37,51.59a49.77,49.77,0,0,1-18.35,17.32c-12.14,6.55-23.66,4.34-35.57-7.21C76.43,165.09,66.28,142.29,66.61,112.1Z"/><path class="cls-1" d="M400.69,337.25a73.36,73.36,0,0,1-28.08-4.67c-10.55-4-15.82-11.68-16.74-22.89-1.11-13.47,2.55-25.64,9.8-36.67,13.71-20.86,29.88-39.2,54.4-47.65,16.34-5.64,32.55-4.93,47.38,4.59,23,14.78,28.15,43.54,11.39,66.28C459.57,322.41,433.54,336.57,400.69,337.25Z"/></svg>