<svg id="Layer_1" data-name="Layer 1" xmlns="http://www.w3.org/2000/svg" viewBox="0 0 50 50"><defs><style>.cls-1{fill:#fff;}</style></defs><path class="cls-1" d="M26.42.29A22.89,22.89,0,0,1,29,.45c8.85,1,14.41,7.06,15.41,13.92.45,3.14.06,10.84-4.39,16.3A13.75,13.75,0,0,1,29.51,36,9,9,0,0,1,23,33.51c-.28-.29-.51-.63-.8-1l-.12.38c-1.86,7.11-2.08,8.68-4,12a40,40,0,0,1-3,4.48c-.12.14-.23.33-.43.33s-.36-.32-.39-.55a38.19,38.19,0,0,1-.35-6.51c.11-2.83.48-3.81,4.25-19.2a.91.91,0,0,0-.08-.64,10.82,10.82,0,0,1-.21-7.21c.92-2.86,3.11-4.28,5.07-4.28a3.58,3.58,0,0,1,3.58,3c.63,2.68-1.1,6.19-2.44,11.38-.8,3.05,1.53,5.47,4.5,5.47a6.39,6.39,0,0,0,3.73-1.28c4-2.87,5.58-9.79,5.33-14.68-.37-7-6-10.07-11.65-10.07a15.34,15.34,0,0,0-6.34,1.35C11.86,10.06,10,19.69,13.49,24.11c.44.55.79.89.63,1.46-.22.89-.44,1.78-.68,2.66a.92.92,0,0,1-.9.73,1.42,1.42,0,0,1-.5-.11,7.77,7.77,0,0,1-3.22-2.44c-3-3.69-3.75-11,.23-17.19S19.77.29,26.42.29Z"/></svg>