<svg id="Layer_1" data-name="Layer 1" xmlns="http://www.w3.org/2000/svg" viewBox="0 0 50 50"><defs><style>.cls-1{fill:#fff;}</style></defs><path class="cls-1" d="M49.4,11.48A14.18,14.18,0,0,1,48.28,13a18.41,18.41,0,0,1-3.62,3.43l-.17.31a26.85,26.85,0,0,1-.21,4.39A29.51,29.51,0,0,1,41.67,30a29,29,0,0,1-5.41,7.79,26.6,26.6,0,0,1-13.67,7.59,30,30,0,0,1-5.52.65l-.89,0A27.65,27.65,0,0,1,1.27,41.72L1,41.58a22.87,22.87,0,0,0,2.33.12A20.11,20.11,0,0,0,11,40.22a19.38,19.38,0,0,0,4.72-2.76,9.81,9.81,0,0,1-9.15-6.87,9.64,9.64,0,0,0,1.84.18,10.36,10.36,0,0,0,2.4-.29l.15-.07a9.7,9.7,0,0,1-6.39-4.54A9.55,9.55,0,0,1,3.1,20.61,9.78,9.78,0,0,0,7.49,21.8,9.94,9.94,0,0,1,4.59,8.63,28,28,0,0,0,24.92,19c-.05-.4-.1-.74-.16-1.09a9.57,9.57,0,0,1,1.52-6.46A9.52,9.52,0,0,1,33,7a10.28,10.28,0,0,1,1.8-.16,9.56,9.56,0,0,1,6.85,2.92.53.53,0,0,0,.36.17l.16,0A19.24,19.24,0,0,0,48,7.65l.13-.07A9.79,9.79,0,0,1,43.87,13,19.29,19.29,0,0,0,49.4,11.48Z"/></svg>