<svg id="Layer_1" data-name="Layer 1" xmlns="http://www.w3.org/2000/svg" viewBox="0 0 50 50"><defs><style>.cls-1{fill:#fff;}</style></defs><path class="cls-1" d="M46,13.77A23.78,23.78,0,0,0,21.67,1.59C3.15,4.19-6.61,27.65,8.18,42.07,26.07,59.51,59.09,39.26,46,13.77ZM19.93,47.29C10.36,45.66,2.27,35.7,2.08,25.53,1.84,12.82,10.66,4.44,21.24,2.89,36,.72,49.39,11.53,47.35,28.14,45.68,41.77,33,49.51,19.93,47.29ZM15.58,14.65c-.59.72-2.47.14-3.05.87,2.37,7.19,4.48,14.66,7.4,21.32,2.78-7.21,5.86-14.24,1.3-21.32-.73-.73-3.18.27-3-1.31,1.94-.78,10.67-.78,12.62,0,0,1.44-2.46.44-3,1.31,2.41,7,4.34,14.52,7.4,20.89.82-5.28,3.61-7.18,3.48-12.63-.14-6.21-7.92-11.65-.43-14.36C30.92,1.6,11.36,4,8.18,13.77,11.08,14.4,15,12.47,15.58,14.65ZM35.16,42.07c7.92-2.91,13.45-17.31,7.4-26.12C42.69,25.54,37.52,33.52,35.16,42.07Zm-19.58.87A274.57,274.57,0,0,0,6,16.82C1.82,27.69,7.16,39.41,15.58,42.94Zm3.48,1.3c2.88,1.51,9.2,1,12.18,0-1.9-5.93-3.35-12.32-6.53-17A166.23,166.23,0,0,1,19.06,44.24Z"/></svg>